<svg width="56" height="56" viewBox="0 0 56 56" fill="none" xmlns="http://www.w3.org/2000/svg">
<rect width="56" height="56" rx="8" fill="url(#paint0_linear_868_42)"/>
<g filter="url(#filter0_d_868_42)">
<path d="M35.1539 22.5C35.7252 22.5001 36.2182 22.6719 36.6324 23.0146C37.0465 23.3575 37.3111 23.8001 37.4254 24.3428L37.8111 26.0996C38.2967 26.271 38.7465 26.4789 39.1607 26.7217C39.575 26.9645 39.9825 27.2434 40.3824 27.5576L42.0103 27.043C42.5246 26.8716 43.0391 26.8788 43.5533 27.0645C44.0676 27.2502 44.4678 27.5856 44.7535 28.0713L45.2252 28.8857C45.5108 29.3714 45.6107 29.8931 45.525 30.4502C45.4392 31.0072 45.182 31.4714 44.7535 31.8428L43.4674 32.957C43.5245 33.4713 43.5533 33.9857 43.5533 34.5C43.5533 35.0143 43.5245 35.5287 43.4674 36.043L44.7535 37.2002C45.182 37.5716 45.4393 38.0285 45.525 38.5713C45.6107 39.1141 45.5108 39.6286 45.2252 40.1143L44.7535 40.9287C44.4678 41.4144 44.0676 41.7498 43.5533 41.9355C43.0391 42.1212 42.5246 42.1284 42.0103 41.957L40.3824 41.4424C39.9825 41.7566 39.575 42.0355 39.1607 42.2783C38.7465 42.5211 38.2967 42.729 37.8111 42.9004L37.4254 44.6572C37.3111 45.1999 37.0465 45.6425 36.6324 45.9854C36.2182 46.3281 35.7252 46.4999 35.1539 46.5H34.1246C33.5533 46.4999 33.0603 46.3281 32.6461 45.9854C32.232 45.6425 31.9674 45.1999 31.8531 44.6572L31.4674 42.9004C30.9818 42.729 30.532 42.5211 30.1178 42.2783C29.7035 42.0355 29.296 41.7566 28.8961 41.4424L27.2682 41.957C26.7539 42.1284 26.2394 42.1212 25.7252 41.9355C25.2109 41.7498 24.8107 41.4144 24.525 40.9287L24.0533 40.1143C23.7677 39.6286 23.6678 39.1069 23.7535 38.5498C23.8392 37.9928 24.0965 37.5286 24.525 37.1572L25.8111 36.043C25.754 35.5287 25.7252 35.0143 25.7252 34.5C25.7252 33.9857 25.754 33.4713 25.8111 32.957L24.525 31.7998C24.0965 31.4284 23.8392 30.9715 23.7535 30.4287C23.6678 29.8859 23.7677 29.3714 24.0533 28.8857L24.525 28.0713C24.8107 27.5856 25.2109 27.2502 25.7252 27.0645C26.2394 26.8788 26.7539 26.8716 27.2682 27.043L28.8961 27.5576C29.296 27.2434 29.7035 26.9645 30.1178 26.7217C30.532 26.4789 30.9818 26.271 31.4674 26.0996L31.8531 24.3428C31.9674 23.8001 32.232 23.3575 32.6461 23.0146C33.0603 22.6719 33.5533 22.5001 34.1246 22.5H35.1539ZM34.6392 29.3574C33.2107 29.3574 31.9967 29.8574 30.9967 30.8574C29.9967 31.8574 29.4967 33.0714 29.4967 34.5C29.4967 35.9286 29.9967 37.1426 30.9967 38.1426C31.9967 39.1426 33.2107 39.6426 34.6392 39.6426C36.0678 39.6426 37.2818 39.1426 38.2818 38.1426C39.2818 37.1426 39.7818 35.9286 39.7818 34.5C39.7818 33.0714 39.2818 31.8574 38.2818 30.8574C37.2818 29.8574 36.0678 29.3574 34.6392 29.3574Z" fill="#002900"/>
</g>
<g filter="url(#filter1_d_868_42)">
<path d="M19.2051 10C19.605 10 19.955 10.1286 20.2549 10.3857C20.5548 10.6428 20.7473 10.9713 20.833 11.3711L21.0908 12.5713C21.4336 12.7141 21.7548 12.8644 22.0547 13.0215C22.3547 13.1786 22.6623 13.371 22.9766 13.5996L24.2188 13.2139C24.5902 13.0996 24.9554 13.114 25.3125 13.2568C25.6693 13.3996 25.9476 13.6284 26.1475 13.9424L26.4903 14.543C26.6903 14.8858 26.7622 15.2572 26.7051 15.6572C26.6479 16.0572 26.4618 16.3854 26.1475 16.6426L25.2051 17.457C25.2622 17.8284 25.291 18.1999 25.291 18.5713C25.291 18.9427 25.2622 19.3142 25.2051 19.6855L26.1475 20.5C26.4617 20.7571 26.6479 21.0783 26.7051 21.4639C26.7622 21.8496 26.6903 22.2148 26.4903 22.5576L26.1045 23.2002C25.9046 23.5142 25.6336 23.7429 25.291 23.8857C24.9482 24.0286 24.5902 24.043 24.2188 23.9287L22.9766 23.543C22.6623 23.7715 22.3547 23.964 22.0547 24.1211C21.7548 24.2782 21.4336 24.4285 21.0908 24.5713L20.833 25.8145C20.7473 26.2143 20.5548 26.5355 20.2549 26.7783C19.955 27.0211 19.605 27.1425 19.2051 27.1426H18.5196C18.1196 27.1426 17.7688 27.014 17.4688 26.7568C17.169 26.4998 16.9763 26.1713 16.8906 25.7715L16.6338 24.5713C16.291 24.4284 15.969 24.2782 15.669 24.1211C15.3691 23.964 15.0622 23.7714 14.7481 23.543L13.5049 23.9287C13.1335 24.043 12.7692 24.0286 12.4121 23.8857C12.055 23.7429 11.7762 23.5144 11.5762 23.2002L11.2334 22.5996C11.0336 22.2568 10.9624 21.8852 11.0196 21.4854C11.0768 21.0856 11.2621 20.757 11.5762 20.5L12.5196 19.6855C12.4624 19.3142 12.4336 18.9427 12.4336 18.5713C12.4336 18.1999 12.4624 17.8284 12.5196 17.457L11.5762 16.6426C11.2621 16.3855 11.0767 16.0642 11.0196 15.6787C10.9624 15.2931 11.0335 14.9287 11.2334 14.5859L11.6192 13.9424C11.8191 13.6283 12.0909 13.3996 12.4336 13.2568C12.7764 13.1141 13.1336 13.0996 13.5049 13.2139L14.7481 13.5996C15.0622 13.3712 15.3692 13.1785 15.669 13.0215C15.969 12.8643 16.291 12.7141 16.6338 12.5713L16.8906 11.3281C16.9764 10.9284 17.169 10.607 17.4688 10.3643C17.7688 10.1214 18.1196 10 18.5196 10H19.2051ZM18.8623 15.1426C17.9195 15.1426 17.1119 15.479 16.4405 16.1504C15.7692 16.8217 15.4336 17.6286 15.4336 18.5713C15.4336 19.5141 15.769 20.3217 16.4405 20.9932C17.1119 21.6645 17.9195 22 18.8623 22C19.8049 21.9999 20.6119 21.6643 21.2832 20.9932C21.9547 20.3217 22.291 19.5141 22.291 18.5713C22.291 17.6285 21.9546 16.8218 21.2832 16.1504C20.6119 15.479 19.8051 15.1426 18.8623 15.1426Z" fill="#002900"/>
</g>
<circle cx="34.5" cy="34.5" r="5.5" fill="#FE00AB"/>
<defs>
<filter id="filter0_d_868_42" x="20.7238" y="20.5" width="29.8309" height="32" filterUnits="userSpaceOnUse" color-interpolation-filters="sRGB">
<feFlood flood-opacity="0" result="BackgroundImageFix"/>
<feColorMatrix in="SourceAlpha" type="matrix" values="0 0 0 0 0 0 0 0 0 0 0 0 0 0 0 0 0 0 127 0" result="hardAlpha"/>
<feOffset dx="1" dy="2"/>
<feGaussianBlur stdDeviation="2"/>
<feComposite in2="hardAlpha" operator="out"/>
<feColorMatrix type="matrix" values="0 0 0 0 0 0 0 0 0 0 0 0 0 0 0 0 0 0 0.25 0"/>
<feBlend mode="normal" in2="BackgroundImageFix" result="effect1_dropShadow_868_42"/>
<feBlend mode="normal" in="SourceGraphic" in2="effect1_dropShadow_868_42" result="shape"/>
</filter>
<filter id="filter1_d_868_42" x="8.00047" y="8" width="23.7236" height="25.1426" filterUnits="userSpaceOnUse" color-interpolation-filters="sRGB">
<feFlood flood-opacity="0" result="BackgroundImageFix"/>
<feColorMatrix in="SourceAlpha" type="matrix" values="0 0 0 0 0 0 0 0 0 0 0 0 0 0 0 0 0 0 127 0" result="hardAlpha"/>
<feOffset dx="1" dy="2"/>
<feGaussianBlur stdDeviation="2"/>
<feComposite in2="hardAlpha" operator="out"/>
<feColorMatrix type="matrix" values="0 0 0 0 0 0 0 0 0 0 0 0 0 0 0 0 0 0 0.25 0"/>
<feBlend mode="normal" in2="BackgroundImageFix" result="effect1_dropShadow_868_42"/>
<feBlend mode="normal" in="SourceGraphic" in2="effect1_dropShadow_868_42" result="shape"/>
</filter>
<linearGradient id="paint0_linear_868_42" x1="0" y1="0" x2="56" y2="56" gradientUnits="userSpaceOnUse">
<stop stop-color="#00FF62"/>
<stop offset="0.993188" stop-color="#00FF00"/>
</linearGradient>
</defs>
</svg>
