<svg width="56" height="56" viewBox="0 0 56 56" fill="none" xmlns="http://www.w3.org/2000/svg">
<rect width="56" height="56" rx="8" fill="url(#paint0_linear_868_32)"/>
<g filter="url(#filter0_d_868_32)">
<path d="M10 37C10 36.4477 10.4477 36 11 36H45C45.5523 36 46 36.4477 46 37V41C46 42.6569 44.6569 44 43 44H13C11.3431 44 10 42.6569 10 41V37Z" fill="#FFFF00"/>
</g>
<g filter="url(#filter1_d_868_32)">
<path d="M10 25C10 24.4477 10.4477 24 11 24H45C45.5523 24 46 24.4477 46 25V31C46 31.5523 45.5523 32 45 32H11C10.4477 32 10 31.5523 10 31V25Z" fill="#000029"/>
</g>
<g filter="url(#filter2_d_868_32)">
<path d="M10 19C10 19.5523 10.4477 20 11 20H45C45.5523 20 46 19.5523 46 19V15C46 13.3431 44.6569 12 43 12H13C11.3431 12 10 13.3431 10 15V19Z" fill="#000029"/>
</g>
<rect x="12" y="38" width="4" height="4" rx="2" fill="#000029"/>
<rect x="12" y="26" width="4" height="4" rx="2" fill="#FFFF00"/>
<rect x="12" y="14" width="4" height="4" rx="2" fill="#FFFF00"/>
<defs>
<filter id="filter0_d_868_32" x="7" y="34" width="44" height="16" filterUnits="userSpaceOnUse" color-interpolation-filters="sRGB">
<feFlood flood-opacity="0" result="BackgroundImageFix"/>
<feColorMatrix in="SourceAlpha" type="matrix" values="0 0 0 0 0 0 0 0 0 0 0 0 0 0 0 0 0 0 127 0" result="hardAlpha"/>
<feOffset dx="1" dy="2"/>
<feGaussianBlur stdDeviation="2"/>
<feComposite in2="hardAlpha" operator="out"/>
<feColorMatrix type="matrix" values="0 0 0 0 0 0 0 0 0 0 0 0 0 0 0 0 0 0 0.25 0"/>
<feBlend mode="normal" in2="BackgroundImageFix" result="effect1_dropShadow_868_32"/>
<feBlend mode="normal" in="SourceGraphic" in2="effect1_dropShadow_868_32" result="shape"/>
</filter>
<filter id="filter1_d_868_32" x="7" y="22" width="44" height="16" filterUnits="userSpaceOnUse" color-interpolation-filters="sRGB">
<feFlood flood-opacity="0" result="BackgroundImageFix"/>
<feColorMatrix in="SourceAlpha" type="matrix" values="0 0 0 0 0 0 0 0 0 0 0 0 0 0 0 0 0 0 127 0" result="hardAlpha"/>
<feOffset dx="1" dy="2"/>
<feGaussianBlur stdDeviation="2"/>
<feComposite in2="hardAlpha" operator="out"/>
<feColorMatrix type="matrix" values="0 0 0 0 0 0 0 0 0 0 0 0 0 0 0 0 0 0 0.25 0"/>
<feBlend mode="normal" in2="BackgroundImageFix" result="effect1_dropShadow_868_32"/>
<feBlend mode="normal" in="SourceGraphic" in2="effect1_dropShadow_868_32" result="shape"/>
</filter>
<filter id="filter2_d_868_32" x="7" y="10" width="44" height="16" filterUnits="userSpaceOnUse" color-interpolation-filters="sRGB">
<feFlood flood-opacity="0" result="BackgroundImageFix"/>
<feColorMatrix in="SourceAlpha" type="matrix" values="0 0 0 0 0 0 0 0 0 0 0 0 0 0 0 0 0 0 127 0" result="hardAlpha"/>
<feOffset dx="1" dy="2"/>
<feGaussianBlur stdDeviation="2"/>
<feComposite in2="hardAlpha" operator="out"/>
<feColorMatrix type="matrix" values="0 0 0 0 0 0 0 0 0 0 0 0 0 0 0 0 0 0 0.25 0"/>
<feBlend mode="normal" in2="BackgroundImageFix" result="effect1_dropShadow_868_32"/>
<feBlend mode="normal" in="SourceGraphic" in2="effect1_dropShadow_868_32" result="shape"/>
</filter>
<linearGradient id="paint0_linear_868_32" x1="0" y1="0" x2="56" y2="56" gradientUnits="userSpaceOnUse">
<stop stop-color="#8000FF"/>
<stop offset="0.993188" stop-color="#0000FF"/>
</linearGradient>
</defs>
</svg>
