<svg viewBox="0 0 227 128" fill="none" xmlns="http://www.w3.org/2000/svg">
<rect width="227" height="128" fill="url(#paint0_linear_459_27)"/>
<g filter="url(#filter0_d_459_27)">
<path d="M113.498 107C93.3478 107 77 101.559 77 94.8566V82.7132C77 81.6591 77.53 80.654 78.2909 79.6792C82.3603 84.9084 96.5106 88.7849 113.5 88.7849C130.489 88.7849 144.64 84.9084 148.709 79.6792C149.47 80.6578 149.996 81.6591 149.996 82.7132V94.8566C149.996 101.555 133.648 107 113.498 107ZM150 58.4264C150 61.944 150 65.6694 150 70.5698C150 77.2687 133.65 82.7132 113.5 82.7132C93.3497 82.7132 77 77.2687 77 70.5698V58.4264C77.05 57.2253 77.6796 56.2137 78.2909 55.3887C82.3603 60.614 96.5106 64.4943 113.5 64.4943C130.489 64.4943 144.64 60.614 148.709 55.3887C149.425 56.3749 149.974 57.3833 150 58.4264ZM113.496 58.4302C93.3459 58.4302 77 52.9895 77 46.2868C77 44.3674 77 36.2819 77 34.1434C77 27.4407 93.3459 22 113.496 22C133.647 22 149.992 27.4407 149.992 34.1434C149.992 36.0363 149.992 44.0349 149.992 46.2868C149.992 52.9895 133.647 58.4302 113.496 58.4302ZM137.826 34.1472C137.826 29.4905 117.487 26.5643 101.304 28.8927C85.121 31.221 85.121 37.0734 101.304 39.4017C117.487 41.7301 137.826 38.8039 137.826 34.1472Z" fill="white"/>
</g>
<defs>
<filter id="filter0_d_459_27" x="74.1236" y="22" width="84.5056" height="96.5056" filterUnits="userSpaceOnUse" color-interpolation-filters="sRGB">
<feFlood flood-opacity="0" result="BackgroundImageFix"/>
<feColorMatrix in="SourceAlpha" type="matrix" values="0 0 0 0 0 0 0 0 0 0 0 0 0 0 0 0 0 0 127 0" result="hardAlpha"/>
<feOffset dx="2.8764" dy="5.75281"/>
<feGaussianBlur stdDeviation="2.8764"/>
<feComposite in2="hardAlpha" operator="out"/>
<feColorMatrix type="matrix" values="0 0 0 0 0 0 0 0 0 0 0 0 0 0 0 0 0 0 0.25 0"/>
<feBlend mode="normal" in2="BackgroundImageFix" result="effect1_dropShadow_459_27"/>
<feBlend mode="normal" in="SourceGraphic" in2="effect1_dropShadow_459_27" result="shape"/>
</filter>
<linearGradient id="paint0_linear_459_27" x1="12.4954" y1="8.88465e-08" x2="203.278" y2="151.341" gradientUnits="userSpaceOnUse">
<stop stop-color="#0161F1"/>
<stop offset="1" stop-color="#864DFF"/>
</linearGradient>
</defs>
</svg>
