<svg viewBox="0 0 227 128" fill="none" xmlns="http://www.w3.org/2000/svg">
<rect width="227" height="128" fill="url(#paint0_linear_459_21)"/>
<g filter="url(#filter0_d_459_21)">
<path d="M149.241 32.3844C148.728 31.8719 147.897 31.8719 147.384 32.3844C146.872 32.897 146.872 33.728 147.384 34.2406L152.441 39.2967C151.338 39.9691 150.298 40.782 149.344 41.7354C148.665 42.4151 148.007 43.2187 147.412 44.077C146.999 44.6726 147.147 45.4904 147.742 45.9035C148.338 46.3167 149.156 46.1689 149.569 45.5733C150.079 44.8371 150.639 44.1533 151.2 43.5916C152.161 42.6308 153.227 41.8395 154.362 41.2178L156.051 42.9075C154.982 43.4379 153.979 44.1486 153.088 45.0397C152.234 45.8934 151.537 46.8577 151.002 47.9162C150.675 48.563 150.934 49.3526 151.581 49.6798C152.227 50.007 153.017 49.7479 153.344 49.101C153.754 48.2897 154.287 47.5522 154.944 46.8958C155.853 45.9865 156.914 45.322 158.046 44.9022L160.289 47.1447C158.704 47.3139 157.164 48.0059 155.949 49.2208C155.314 49.8561 154.808 50.6148 154.443 51.4487C154.152 52.1128 154.455 52.8867 155.119 53.1773C155.783 53.4678 156.557 53.1651 156.848 52.501C157.085 51.9585 157.409 51.4736 157.805 51.0769C159.414 49.4684 161.916 49.2992 163.713 50.5692L172.759 59.6156C173.272 60.1281 174.103 60.1281 174.616 59.6156C175.128 59.103 175.128 58.272 174.616 57.7594L149.241 32.3844ZM163.393 44.6814C164.779 45.0681 166.087 45.8062 167.176 46.8958C167.804 47.523 168.358 48.3004 168.781 49.1275C169.112 49.7728 169.902 50.0284 170.548 49.6983C171.193 49.3682 171.449 48.5775 171.118 47.9321C170.574 46.8678 169.86 45.8667 169.033 45.0397C166.68 42.6867 163.545 41.5911 160.465 41.753L163.393 44.6814ZM158.462 39.7503C162.838 38.9247 167.533 40.2051 170.92 43.5916C171.511 44.183 172.076 44.8665 172.568 45.5788C172.979 46.1754 173.797 46.3252 174.393 45.9135C174.99 45.5017 175.14 44.6843 174.728 44.0878C174.148 43.2476 173.482 42.4417 172.776 41.7354C168.314 37.2736 161.941 35.8885 156.292 37.5801L158.462 39.7503ZM162.612 55.8673C163.461 55.0183 163.461 53.6418 162.612 52.7928C161.763 51.9438 160.387 51.9438 159.538 52.7928C158.689 53.6418 158.689 55.0183 159.538 55.8673C160.387 56.7163 161.763 56.7163 162.612 55.8673Z" fill="white"/>
</g>
<g filter="url(#filter1_d_459_21)">
<path d="M57.1105 42.0264C58.791 36.7343 61.5595 31.8766 65.2124 27.7598C65.8301 27.0636 66.7993 26.8155 67.6669 27.1314L76.3966 30.3095C78.7634 31.1706 81.3677 29.9152 82.2134 27.5055C82.2966 27.2685 82.3607 27.0251 82.405 26.7779L84.0681 17.4831C84.2334 16.559 84.9305 15.8279 85.8329 15.6324C88.4733 15.0602 91.1804 14.7692 93.9231 14.7692C96.664 14.7692 99.3696 15.0598 102.008 15.6313C102.911 15.8267 103.608 16.5573 103.773 17.4811L105.441 26.7775C105.892 29.295 108.262 30.9636 110.735 30.5045C110.978 30.4594 111.217 30.3942 111.449 30.3096L120.179 27.1314C121.047 26.8155 122.016 27.0636 122.634 27.7598C126.287 31.8766 129.055 36.7343 130.736 42.0264C131.019 42.9192 130.746 43.8979 130.043 44.5052L122.968 50.6218C121.052 52.2782 120.817 55.2022 122.444 57.1528C122.604 57.3447 122.779 57.5229 122.967 57.6857L130.043 63.8024C130.746 64.4096 131.019 65.3884 130.736 66.2812C129.055 71.5732 126.287 76.431 122.634 80.5478C122.016 81.244 121.047 81.4921 120.179 81.1762L111.449 77.9981C109.083 77.1369 106.478 78.3923 105.633 80.8021C105.55 81.039 105.485 81.2825 105.441 81.5307L103.773 90.8265C103.608 91.7503 102.911 92.4808 102.008 92.6762C99.3696 93.2478 96.664 93.5384 93.9231 93.5384C91.1804 93.5384 88.4733 93.2474 85.8329 92.6752C84.9305 92.4796 84.2334 91.7486 84.0681 90.8244L82.405 81.53C81.9541 79.0126 79.5842 77.3439 77.1116 77.803C76.8685 77.8482 76.6294 77.9134 76.397 77.9979L67.6669 81.1762C66.7993 81.4921 65.8301 81.244 65.2124 80.5478C61.5595 76.431 58.791 71.5732 57.1105 66.2812C56.8269 65.3884 57.1003 64.4096 57.8028 63.8024L64.8786 57.6857C66.7944 56.0294 67.0288 53.1054 65.402 51.1547C65.242 50.9629 65.067 50.7847 64.8787 50.6219L57.8028 44.5052C57.1003 43.8979 56.8269 42.9192 57.1105 42.0264ZM84.8215 54.1538C84.8215 59.2718 88.8964 63.4208 93.9231 63.4208C98.9497 63.4208 103.025 59.2718 103.025 54.1538C103.025 49.0358 98.9497 44.8868 93.9231 44.8868C88.8964 44.8868 84.8215 49.0358 84.8215 54.1538Z" fill="white"/>
</g>
<g filter="url(#filter2_d_459_21)">
<path d="M130.905 86.9694C131.801 84.1029 133.278 81.4716 135.226 79.2417C135.556 78.8646 136.072 78.7302 136.535 78.9013L141.191 80.6228C142.453 81.0892 143.842 80.4092 144.293 79.1039C144.338 78.9756 144.372 78.8437 144.395 78.7098L145.282 73.6751C145.371 73.1745 145.742 72.7786 146.224 72.6726C147.632 72.3627 149.076 72.2051 150.538 72.2051C152 72.2051 153.443 72.3625 154.851 72.6721C155.332 72.7779 155.704 73.1736 155.792 73.674L156.681 78.7096C156.922 80.0732 158.186 80.9771 159.505 80.7284C159.634 80.704 159.762 80.6686 159.886 80.6228L164.542 78.9013C165.004 78.7302 165.521 78.8646 165.851 79.2417C167.799 81.4716 169.276 84.1029 170.172 86.9694C170.323 87.453 170.177 87.9832 169.803 88.3121L166.029 91.6253C165.007 92.5224 164.882 94.1063 165.75 95.1629C165.835 95.2668 165.928 95.3633 166.029 95.4515L169.803 98.7647C170.177 99.0937 170.323 99.6238 170.172 100.107C169.276 102.974 167.799 105.605 165.851 107.835C165.521 108.212 165.004 108.347 164.542 108.176L159.886 106.454C158.624 105.988 157.235 106.668 156.784 107.973C156.739 108.101 156.705 108.233 156.681 108.368L155.792 113.403C155.704 113.903 155.332 114.299 154.851 114.405C153.443 114.714 152 114.872 150.538 114.872C149.076 114.872 147.632 114.714 146.224 114.404C145.742 114.298 145.371 113.902 145.282 113.402L144.395 108.367C144.155 107.004 142.891 106.1 141.572 106.348C141.443 106.373 141.315 106.408 141.191 106.454L136.535 108.176C136.072 108.347 135.556 108.212 135.226 107.835C133.278 105.605 131.801 102.974 130.905 100.107C130.754 99.6238 130.9 99.0937 131.274 98.7647L135.048 95.4516C136.07 94.5544 136.195 92.9705 135.327 91.9139C135.242 91.81 135.149 91.7135 135.048 91.6253L131.274 88.3121C130.9 87.9832 130.754 87.453 130.905 86.9694ZM145.684 93.5384C145.684 96.3107 147.858 98.558 150.538 98.558C153.219 98.558 155.393 96.3107 155.393 93.5384C155.393 90.7662 153.219 88.5188 150.538 88.5188C147.858 88.5188 145.684 90.7662 145.684 93.5384Z" fill="white"/>
</g>
<defs>
<filter id="filter0_d_459_21" x="139" y="28" width="44" height="44" filterUnits="userSpaceOnUse" color-interpolation-filters="sRGB">
<feFlood flood-opacity="0" result="BackgroundImageFix"/>
<feColorMatrix in="SourceAlpha" type="matrix" values="0 0 0 0 0 0 0 0 0 0 0 0 0 0 0 0 0 0 127 0" result="hardAlpha"/>
<feOffset dy="4"/>
<feGaussianBlur stdDeviation="4"/>
<feComposite in2="hardAlpha" operator="out"/>
<feColorMatrix type="matrix" values="0 0 0 0 0 0 0 0 0 0 0 0 0 0 0 0 0 0 0.25 0"/>
<feBlend mode="normal" in2="BackgroundImageFix" result="effect1_dropShadow_459_21"/>
<feBlend mode="normal" in="SourceGraphic" in2="effect1_dropShadow_459_21" result="shape"/>
</filter>
<filter id="filter1_d_459_21" x="53.7179" y="14.7692" width="86.9744" height="91.8975" filterUnits="userSpaceOnUse" color-interpolation-filters="sRGB">
<feFlood flood-opacity="0" result="BackgroundImageFix"/>
<feColorMatrix in="SourceAlpha" type="matrix" values="0 0 0 0 0 0 0 0 0 0 0 0 0 0 0 0 0 0 127 0" result="hardAlpha"/>
<feOffset dx="3.28205" dy="6.5641"/>
<feGaussianBlur stdDeviation="3.28205"/>
<feComposite in2="hardAlpha" operator="out"/>
<feColorMatrix type="matrix" values="0 0 0 0 0 0 0 0 0 0 0 0 0 0 0 0 0 0 0.25 0"/>
<feBlend mode="normal" in2="BackgroundImageFix" result="effect1_dropShadow_459_21"/>
<feBlend mode="normal" in="SourceGraphic" in2="effect1_dropShadow_459_21" result="shape"/>
</filter>
<filter id="filter2_d_459_21" x="127.564" y="72.2051" width="52.5128" height="55.7948" filterUnits="userSpaceOnUse" color-interpolation-filters="sRGB">
<feFlood flood-opacity="0" result="BackgroundImageFix"/>
<feColorMatrix in="SourceAlpha" type="matrix" values="0 0 0 0 0 0 0 0 0 0 0 0 0 0 0 0 0 0 127 0" result="hardAlpha"/>
<feOffset dx="3.28205" dy="6.5641"/>
<feGaussianBlur stdDeviation="3.28205"/>
<feComposite in2="hardAlpha" operator="out"/>
<feColorMatrix type="matrix" values="0 0 0 0 0 0 0 0 0 0 0 0 0 0 0 0 0 0 0.25 0"/>
<feBlend mode="normal" in2="BackgroundImageFix" result="effect1_dropShadow_459_21"/>
<feBlend mode="normal" in="SourceGraphic" in2="effect1_dropShadow_459_21" result="shape"/>
</filter>
<linearGradient id="paint0_linear_459_21" x1="2.39789" y1="3.28204" x2="256.668" y2="147.639" gradientUnits="userSpaceOnUse">
<stop offset="0.17" stop-color="#9601F1"/>
<stop offset="1" stop-color="#BD00B6"/>
</linearGradient>
</defs>
</svg>
