<svg width="192" height="192" viewBox="0 0 192 192" fill="none" xmlns="http://www.w3.org/2000/svg">
<path d="M0 84C0 72.6863 0 67.0294 3.51472 63.5147C7.02944 60 12.6863 60 24 60H60V132H24C12.6863 132 7.02944 132 3.51472 128.485C0 124.971 0 119.314 0 108V84Z" fill="url(#paint0_linear_585_27)"/>
<rect x="24" y="24" width="168" height="144" rx="24" fill="url(#paint1_linear_585_27)"/>
<path d="M144 48H156C162.627 48 168 53.3726 168 60V132C168 138.627 162.627 144 156 144H144V48Z" fill="#FFF4EB"/>
<g filter="url(#filter0_d_585_27)">
<path d="M48 72C48 60.6863 48 55.0294 51.5147 51.5147C55.0294 48 60.6863 48 72 48H144C155.314 48 160.971 48 164.485 51.5147C168 55.0294 168 60.6863 168 72V120C168 131.314 168 136.971 164.485 140.485C160.971 144 155.314 144 144 144H72C60.6863 144 55.0294 144 51.5147 140.485C48 136.971 48 131.314 48 120V72Z" fill="#FFF4EB"/>
</g>
<rect x="120" y="48" width="24" height="96" fill="#FFDFC2"/>
<rect x="96" y="48" width="24" height="96" fill="#FFCA99"/>
<rect x="72" y="48" width="24" height="96" fill="#FFB570"/>
<path d="M48 72C48 60.6863 48 55.0294 51.5147 51.5147C55.0294 48 60.6863 48 72 48V48V144V144C60.6863 144 55.0294 144 51.5147 140.485C48 136.971 48 131.314 48 120V72Z" fill="#FFA047"/>
<defs>
<filter id="filter0_d_585_27" x="42" y="43.5" width="132" height="108" filterUnits="userSpaceOnUse" color-interpolation-filters="sRGB">
<feFlood flood-opacity="0" result="BackgroundImageFix"/>
<feColorMatrix in="SourceAlpha" type="matrix" values="0 0 0 0 0 0 0 0 0 0 0 0 0 0 0 0 0 0 127 0" result="hardAlpha"/>
<feOffset dy="1.5"/>
<feGaussianBlur stdDeviation="3"/>
<feComposite in2="hardAlpha" operator="out"/>
<feColorMatrix type="matrix" values="0 0 0 0 0 0 0 0 0 0 0 0 0 0 0 0 0 0 0.25 0"/>
<feBlend mode="normal" in2="BackgroundImageFix" result="effect1_dropShadow_585_27"/>
<feBlend mode="normal" in="SourceGraphic" in2="effect1_dropShadow_585_27" result="shape"/>
</filter>
<linearGradient id="paint0_linear_585_27" x1="-8.9407e-07" y1="96" x2="111.094" y2="96" gradientUnits="userSpaceOnUse">
<stop stop-color="#CC6200"/>
<stop offset="1" stop-color="#994C05"/>
</linearGradient>
<linearGradient id="paint1_linear_585_27" x1="24" y1="96" x2="192" y2="96" gradientUnits="userSpaceOnUse">
<stop stop-color="#FF7F09"/>
<stop offset="1" stop-color="#FF9029"/>
</linearGradient>
</defs>
</svg>