<svg width="32" height="32" viewBox="0 0 32 32" fill="none" xmlns="http://www.w3.org/2000/svg">
<rect x="4" y="4" width="28" height="24" rx="4" fill="url(#paint0_linear_585_31)"/>
<path d="M0 14C0 12.1144 0 11.1716 0.585786 10.5858C1.17157 10 2.11438 10 4 10V10V22V22C2.11438 22 1.17157 22 0.585786 21.4142C0 20.8284 0 19.8856 0 18V14Z" fill="url(#paint1_linear_585_31)"/>
<path d="M24 8H26C27.1046 8 28 8.89543 28 10V22C28 23.1046 27.1046 24 26 24H24V8Z" fill="#FFF4EB"/>
<g filter="url(#filter0_d_585_31)">
<path d="M8 12C8 10.1144 8 9.17157 8.58579 8.58579C9.17157 8 10.1144 8 12 8H24C25.8856 8 26.8284 8 27.4142 8.58579C28 9.17157 28 10.1144 28 12V20C28 21.8856 28 22.8284 27.4142 23.4142C26.8284 24 25.8856 24 24 24H12C10.1144 24 9.17157 24 8.58579 23.4142C8 22.8284 8 21.8856 8 20V12Z" fill="#FFF4EB"/>
</g>
<rect x="20" y="8" width="4" height="16" fill="#FFDFC2"/>
<rect x="16" y="8" width="4" height="16" fill="#FFCA99"/>
<rect x="12" y="8" width="4" height="16" fill="#FFB570"/>
<path d="M8 12C8 10.1144 8 9.17157 8.58579 8.58579C9.17157 8 10.1144 8 12 8V8V24V24C10.1144 24 9.17157 24 8.58579 23.4142C8 22.8284 8 21.8856 8 20V12Z" fill="#FFA047"/>
<defs>
<filter id="filter0_d_585_31" x="7" y="7.25" width="22" height="18" filterUnits="userSpaceOnUse" color-interpolation-filters="sRGB">
<feFlood flood-opacity="0" result="BackgroundImageFix"/>
<feColorMatrix in="SourceAlpha" type="matrix" values="0 0 0 0 0 0 0 0 0 0 0 0 0 0 0 0 0 0 127 0" result="hardAlpha"/>
<feOffset dy="0.25"/>
<feGaussianBlur stdDeviation="0.5"/>
<feComposite in2="hardAlpha" operator="out"/>
<feColorMatrix type="matrix" values="0 0 0 0 0 0 0 0 0 0 0 0 0 0 0 0 0 0 0.25 0"/>
<feBlend mode="normal" in2="BackgroundImageFix" result="effect1_dropShadow_585_31"/>
<feBlend mode="normal" in="SourceGraphic" in2="effect1_dropShadow_585_31" result="shape"/>
</filter>
<linearGradient id="paint0_linear_585_31" x1="4" y1="16" x2="32" y2="16" gradientUnits="userSpaceOnUse">
<stop stop-color="#FF7F09"/>
<stop offset="1" stop-color="#FF9029"/>
</linearGradient>
<linearGradient id="paint1_linear_585_31" x1="-5.96046e-08" y1="16" x2="7.40625" y2="16" gradientUnits="userSpaceOnUse">
<stop stop-color="#CC6200"/>
<stop offset="1" stop-color="#994C05"/>
</linearGradient>
</defs>
</svg>
