<svg width="192" height="192" viewBox="0 0 192 192" fill="none" xmlns="http://www.w3.org/2000/svg">
<g clip-path="url(#clip0_539_281)">
<path d="M0 60H168C179.314 60 184.971 60 188.485 63.5147C192 67.0294 192 72.6863 192 84V168C192 179.314 192 184.971 188.485 188.485C184.971 192 179.314 192 168 192H24C12.6863 192 7.02944 192 3.51472 188.485C0 184.971 0 179.314 0 168V60Z" fill="#027EF0"/>
<g clip-path="url(#clip1_539_281)">
<g filter="url(#filter0_d_539_281)">
<path d="M0 60H120V96C120 107.314 120 112.971 116.485 116.485C112.971 120 107.314 120 96 120H24C12.6863 120 7.02944 120 3.51472 116.485C0 112.971 0 107.314 0 96V60Z" fill="#D9D9D9"/>
</g>
</g>
<rect width="120" height="120" rx="12" fill="url(#paint0_linear_539_281)"/>
</g>
<defs>
<filter id="filter0_d_539_281" x="-10.5" y="49.5" width="144" height="84" filterUnits="userSpaceOnUse" color-interpolation-filters="sRGB">
<feFlood flood-opacity="0" result="BackgroundImageFix"/>
<feColorMatrix in="SourceAlpha" type="matrix" values="0 0 0 0 0 0 0 0 0 0 0 0 0 0 0 0 0 0 127 0" result="hardAlpha"/>
<feOffset dx="1.5" dy="1.5"/>
<feGaussianBlur stdDeviation="6"/>
<feComposite in2="hardAlpha" operator="out"/>
<feColorMatrix type="matrix" values="0 0 0 0 0 0 0 0 0 0 0 0 0 0 0 0 0 0 0.25 0"/>
<feBlend mode="normal" in2="BackgroundImageFix" result="effect1_dropShadow_539_281"/>
<feBlend mode="normal" in="SourceGraphic" in2="effect1_dropShadow_539_281" result="shape"/>
</filter>
<linearGradient id="paint0_linear_539_281" x1="0" y1="0" x2="120" y2="120" gradientUnits="userSpaceOnUse">
<stop stop-color="#33DAFF"/>
<stop offset="1" stop-color="#47A7FF"/>
</linearGradient>
<clipPath id="clip0_539_281">
<rect width="192" height="192" fill="white"/>
</clipPath>
<clipPath id="clip1_539_281">
<rect width="192" height="132" fill="white" transform="translate(0 60)"/>
</clipPath>
</defs>
</svg>
