<svg width="32" height="32" viewBox="0 0 32 32" fill="none" xmlns="http://www.w3.org/2000/svg">
<g clip-path="url(#clip0_539_299)">
<path d="M0 10H28C29.8856 10 30.8284 10 31.4142 10.5858C32 11.1716 32 12.1144 32 14V28C32 29.8856 32 30.8284 31.4142 31.4142C30.8284 32 29.8856 32 28 32H4C2.11438 32 1.17157 32 0.585786 31.4142C0 30.8284 0 29.8856 0 28V10Z" fill="#027EF0"/>
<g clip-path="url(#clip1_539_299)">
<g filter="url(#filter0_d_539_299)">
<path d="M0 10H20V16C20 17.8856 20 18.8284 19.4142 19.4142C18.8284 20 17.8856 20 16 20H4C2.11438 20 1.17157 20 0.585786 19.4142C0 18.8284 0 17.8856 0 16V10Z" fill="#D9D9D9"/>
</g>
</g>
<rect width="20" height="20" rx="2" fill="url(#paint0_linear_539_299)"/>
</g>
<defs>
<filter id="filter0_d_539_299" x="-1.75" y="8.25" width="24" height="14" filterUnits="userSpaceOnUse" color-interpolation-filters="sRGB">
<feFlood flood-opacity="0" result="BackgroundImageFix"/>
<feColorMatrix in="SourceAlpha" type="matrix" values="0 0 0 0 0 0 0 0 0 0 0 0 0 0 0 0 0 0 127 0" result="hardAlpha"/>
<feOffset dx="0.25" dy="0.25"/>
<feGaussianBlur stdDeviation="1"/>
<feComposite in2="hardAlpha" operator="out"/>
<feColorMatrix type="matrix" values="0 0 0 0 0 0 0 0 0 0 0 0 0 0 0 0 0 0 0.25 0"/>
<feBlend mode="normal" in2="BackgroundImageFix" result="effect1_dropShadow_539_299"/>
<feBlend mode="normal" in="SourceGraphic" in2="effect1_dropShadow_539_299" result="shape"/>
</filter>
<linearGradient id="paint0_linear_539_299" x1="0" y1="0" x2="20" y2="20" gradientUnits="userSpaceOnUse">
<stop stop-color="#33DAFF"/>
<stop offset="1" stop-color="#47A7FF"/>
</linearGradient>
<clipPath id="clip0_539_299">
<rect width="32" height="32" fill="white"/>
</clipPath>
<clipPath id="clip1_539_299">
<rect width="32" height="22" fill="white" transform="translate(0 10)"/>
</clipPath>
</defs>
</svg>
