<svg viewBox="0 0 512 512" fill="none" xmlns="http://www.w3.org/2000/svg">
<g clip-path="url(#clip0_55_2)">
<circle cx="256.318" cy="311.06" r="162.542" fill="url(#paint0_radial_55_2)"/>
<circle cx="257.074" cy="311.816" r="111.889" fill="#56FAFA"/>
<path fill-rule="evenodd" clip-rule="evenodd" d="M92.2707 201.374C71.2566 232.741 59 270.469 59 311.06C59 420.036 147.342 508.378 256.318 508.378C332.658 508.378 398.873 465.025 431.686 401.596C409.503 406.155 386.198 408.585 362.159 408.585C213.725 408.585 93.2773 315.947 92.2707 201.374Z" fill="url(#paint1_linear_55_2)"/>
<path fill-rule="evenodd" clip-rule="evenodd" d="M279.754 507.001C377.683 495.412 453.636 412.106 453.636 311.06C453.636 259.913 434.176 213.312 402.257 178.256C407.162 195.471 409.788 213.646 409.788 232.435C409.788 317.783 355.601 390.474 279.754 417.984V507.001Z" fill="url(#paint2_radial_55_2)"/>
<path d="M184.497 112.23C198.768 58.5498 249.095 13.1894 272.95 5.63286C302.434 129.618 420.12 193.257 426.205 303.396C432.29 413.534 342.632 538.951 201.885 500.818C280.717 460.053 303.001 342.182 251.428 263.645C223.369 220.915 170.226 165.91 184.497 112.23Z" fill="url(#paint3_radial_55_2)"/>
</g>
<defs>
<radialGradient id="paint0_radial_55_2" cx="0" cy="0" r="1" gradientUnits="userSpaceOnUse" gradientTransform="translate(256.318 311.06) rotate(90) scale(162.542)">
<stop offset="0.395" stop-color="#3DD9ED"/>
<stop offset="1" stop-color="#9501F1"/>
</radialGradient>
<linearGradient id="paint1_linear_55_2" x1="23.7141" y1="305.016" x2="401.308" y2="510.012" gradientUnits="userSpaceOnUse">
<stop stop-color="#31F8EC"/>
<stop offset="1" stop-color="#9403F1"/>
</linearGradient>
<radialGradient id="paint2_radial_55_2" cx="0" cy="0" r="1" gradientUnits="userSpaceOnUse" gradientTransform="translate(509.581 283.844) rotate(143.399) scale(355.025 396.878)">
<stop offset="0.265" stop-color="#0EE1DC"/>
<stop offset="1" stop-color="#9404F1"/>
</radialGradient>
<radialGradient id="paint3_radial_55_2" cx="0" cy="0" r="1" gradientUnits="userSpaceOnUse" gradientTransform="translate(266.113 10.4556) rotate(88.8065) scale(491.04 655.117)">
<stop stop-color="#30F7EB"/>
<stop offset="1" stop-color="#9500F0"/>
</radialGradient>
<clipPath id="clip0_55_2">
<rect width="512" height="512" fill="white"/>
</clipPath>
</defs>
</svg>
