<svg width="32" height="32" viewBox="0 0 32 32" fill="none" xmlns="http://www.w3.org/2000/svg">
<g clip-path="url(#clip0_539_213)">
<path d="M0 4C0 2.11438 0 1.17157 0.585786 0.585786C1.17157 0 2.11438 0 4 0H16V16H0V4Z" fill="#D899FF"/>
<path d="M0 16H16V32H4C2.11438 32 1.17157 32 0.585786 31.4142C0 30.8284 0 29.8856 0 28V16Z" fill="#7400BD"/>
<path d="M16 0H28C29.8856 0 30.8284 0 31.4142 0.585786C32 1.17157 32 2.11438 32 4V16H16V0Z" fill="#715AF0"/>
<path d="M16 16H32V28C32 29.8856 32 30.8284 31.4142 31.4142C30.8284 32 29.8856 32 28 32H16V16Z" fill="#00D6DB"/>
</g>
<defs>
<clipPath id="clip0_539_213">
<rect width="32" height="32" fill="white"/>
</clipPath>
</defs>
</svg>
