<svg width="192" height="192" viewBox="0 0 192 192" fill="none" xmlns="http://www.w3.org/2000/svg">
<g clip-path="url(#clip0_539_195)">
<path d="M0 24C0 12.6863 0 7.02944 3.51472 3.51472C7.02944 0 12.6863 0 24 0H96V96H0V24Z" fill="#D899FF"/>
<path d="M0 96H96V192H24C12.6863 192 7.02944 192 3.51472 188.485C0 184.971 0 179.314 0 168V96Z" fill="#7400BD"/>
<path d="M96 0H168C179.314 0 184.971 0 188.485 3.51472C192 7.02944 192 12.6863 192 24V96H96V0Z" fill="#715AF0"/>
<path d="M96 96H192V168C192 179.314 192 184.971 188.485 188.485C184.971 192 179.314 192 168 192H96V96Z" fill="#00D6DB"/>
</g>
<defs>
<clipPath id="clip0_539_195">
<rect width="192" height="192" fill="white"/>
</clipPath>
</defs>
</svg>
