<svg width="192" height="192" viewBox="0 0 192 192" fill="none" xmlns="http://www.w3.org/2000/svg">
<rect x="144" y="36" width="24" height="108" rx="6" fill="#01B92A"/>
<path d="M168.995 111.675C172.995 107.675 174.995 105.675 177.481 105.675C179.966 105.675 181.966 107.675 185.966 111.675C189.966 115.675 191.966 117.675 191.966 120.161C191.966 122.646 189.966 124.646 185.966 128.646L164.584 150.027C160.584 154.027 158.584 156.027 156.099 156.027C153.614 156.027 151.614 154.027 147.614 150.027C143.614 146.027 141.614 144.027 141.614 141.542C141.614 139.057 143.614 137.057 147.614 133.057L168.995 111.675Z" fill="#00F437"/>
<path d="M126.136 128.647C122.136 124.647 120.136 122.647 120.136 120.162C120.136 117.676 122.136 115.676 126.136 111.676C130.136 107.676 132.136 105.676 134.621 105.676C137.106 105.676 139.106 107.676 143.106 111.676L164.488 133.058C168.488 137.058 170.488 139.058 170.488 141.543C170.488 144.029 168.488 146.029 164.488 150.029C160.488 154.029 158.488 156.029 156.003 156.029C153.517 156.029 151.517 154.029 147.517 150.029L126.136 128.647Z" fill="#00F437"/>
<rect y="36" width="24" height="120" rx="6" fill="#00F437"/>
<path d="M27.3092 42.3472C23.3092 38.3472 21.3092 36.3472 18.8239 36.3472C16.3386 36.3472 14.3386 38.3472 10.3386 42.3472C6.33862 46.3472 4.33862 48.3472 4.33862 50.8324C4.33862 53.3177 6.33862 55.3177 10.3386 59.3177L45.3993 94.3784C49.3993 98.3784 51.3993 100.378 53.8846 100.378C56.3699 100.378 58.3699 98.3784 62.3699 94.3784C66.3699 90.3784 68.3699 88.3784 68.3699 85.8931C68.3699 83.4079 66.3699 81.4079 62.3699 77.4079L27.3092 42.3472Z" fill="#00F437"/>
<path d="M80.4366 42.448C84.4367 38.448 86.4366 36.448 88.9219 36.448C91.4072 36.448 93.4072 38.448 97.4072 42.448C101.407 46.448 103.407 48.448 103.407 50.9333C103.407 53.4185 101.407 55.4185 97.4072 59.4185L62.4066 94.4192C58.4066 98.4192 56.4066 100.419 53.9213 100.419C51.436 100.419 49.436 98.4192 45.436 94.4192C41.436 90.4192 39.436 88.4192 39.436 85.9339C39.436 83.4486 41.436 81.4486 45.436 77.4486L80.4366 42.448Z" fill="#01B92A"/>
<rect x="84" y="36" width="24" height="120" rx="6" fill="#00F437"/>
</svg>
