<svg width="32" height="32" viewBox="0 0 32 32" fill="none" xmlns="http://www.w3.org/2000/svg">
<rect x="24" y="6" width="4" height="18" rx="1" fill="#01B92A"/>
<path d="M28.166 18.6125C28.8326 17.9459 29.166 17.6125 29.5802 17.6125C29.9944 17.6125 30.3277 17.9459 30.9944 18.6125C31.6611 19.2792 31.9944 19.6125 31.9944 20.0268C31.9944 20.441 31.6611 20.7743 30.9944 21.441L27.4308 25.0046C26.7641 25.6712 26.4308 26.0046 26.0166 26.0046C25.6024 26.0046 25.269 25.6712 24.6024 25.0046C23.9357 24.3379 23.6024 24.0046 23.6024 23.5904C23.6024 23.1761 23.9357 22.8428 24.6024 22.1761L28.166 18.6125Z" fill="#00F437"/>
<path d="M21.0227 21.4412C20.356 20.7745 20.0227 20.4412 20.0227 20.0269C20.0227 19.6127 20.356 19.2794 21.0227 18.6127C21.6894 17.9461 22.0227 17.6127 22.4369 17.6127C22.8511 17.6127 23.1845 17.9461 23.8511 18.6127L27.4147 22.1763C28.0814 22.843 28.4147 23.1763 28.4147 23.5905C28.4147 24.0048 28.0814 24.3381 27.4147 25.0048C26.7481 25.6714 26.4147 26.0048 26.0005 26.0048C25.5863 26.0048 25.253 25.6714 24.5863 25.0048L21.0227 21.4412Z" fill="#00F437"/>
<rect y="6" width="4" height="20" rx="1" fill="#00F437"/>
<path d="M4.55157 7.05786C3.8849 6.39119 3.55157 6.05786 3.13736 6.05786C2.72314 6.05786 2.38981 6.39119 1.72314 7.05786C1.05648 7.72453 0.723145 8.05786 0.723145 8.47207C0.723145 8.88629 1.05648 9.21962 1.72314 9.88629L7.56659 15.7297C8.23326 16.3964 8.56659 16.7297 8.98081 16.7297C9.39502 16.7297 9.72835 16.3964 10.395 15.7297C11.0617 15.0631 11.395 14.7297 11.395 14.3155C11.395 13.9013 11.0617 13.568 10.395 12.9013L4.55157 7.05786Z" fill="#00F437"/>
<path d="M13.4061 7.07466C14.0728 6.408 14.4061 6.07466 14.8204 6.07466C15.2346 6.07466 15.5679 6.408 16.2346 7.07466C16.9012 7.74133 17.2346 8.07466 17.2346 8.48888C17.2346 8.90309 16.9012 9.23642 16.2346 9.90309L10.4011 15.7365C9.73447 16.4032 9.40114 16.7365 8.98692 16.7365C8.57271 16.7365 8.23938 16.4032 7.57271 15.7365C6.90604 15.0699 6.57271 14.7365 6.57271 14.3223C6.57271 13.9081 6.90604 13.5748 7.57271 12.9081L13.4061 7.07466Z" fill="#01B92A"/>
<rect x="14" y="6" width="4" height="20" rx="1" fill="#00F437"/>
</svg>
