<svg width="32" height="32" viewBox="0 0 32 32" fill="none" xmlns="http://www.w3.org/2000/svg">
<g clip-path="url(#clip0_594_33)">
<path d="M0 22C0 20.1144 0 19.1716 0.585786 18.5858C1.17157 18 2.11438 18 4 18V32C2.11438 32 1.17157 32 0.585786 31.4142C0 30.8284 0 29.8856 0 28V22Z" fill="url(#paint0_linear_594_33)"/>
<path d="M10 18C11.8856 18 12.8284 18 13.4142 18.5858C14 19.1716 14 20.1144 14 22V28C14 29.8856 14 30.8284 13.4142 31.4142C12.8284 32 11.8856 32 10 32V18Z" fill="url(#paint1_linear_594_33)"/>
<path d="M0 22C0 20.1144 0 19.1716 0.585786 18.5858C1.17157 18 2.11438 18 4 18H10C11.8856 18 12.8284 18 13.4142 18.5858C14 19.1716 14 20.1144 14 22L0 22Z" fill="url(#paint2_linear_594_33)"/>
<path d="M0 28H14C14 29.8856 14 30.8284 13.4142 31.4142C12.8284 32 11.8856 32 10 32H4C2.11438 32 1.17157 32 0.585786 31.4142C0 30.8284 0 29.8856 0 28Z" fill="url(#paint3_linear_594_33)"/>
<path d="M18 4C18 2.11438 18 1.17157 18.5858 0.585786C19.1716 0 20.1144 0 22 0V14C20.1144 14 19.1716 14 18.5858 13.4142C18 12.8284 18 11.8856 18 10V4Z" fill="url(#paint4_linear_594_33)"/>
<path d="M28 0C29.8856 0 30.8284 0 31.4142 0.585786C32 1.17157 32 2.11438 32 4V10C32 11.8856 32 12.8284 31.4142 13.4142C30.8284 14 29.8856 14 28 14V0Z" fill="url(#paint5_linear_594_33)"/>
<path d="M18 4C18 2.11438 18 1.17157 18.5858 0.585786C19.1716 0 20.1144 0 22 0H28C29.8856 0 30.8284 0 31.4142 0.585786C32 1.17157 32 2.11438 32 4L18 4Z" fill="url(#paint6_linear_594_33)"/>
<path d="M18 10H32C32 11.8856 32 12.8284 31.4142 13.4142C30.8284 14 29.8856 14 28 14H22C20.1144 14 19.1716 14 18.5858 13.4142C18 12.8284 18 11.8856 18 10Z" fill="url(#paint7_linear_594_33)"/>
<path d="M0 4C0 2.11438 0 1.17157 0.585786 0.585786C1.17157 0 2.11438 0 4 0V14C2.11438 14 1.17157 14 0.585786 13.4142C0 12.8284 0 11.8856 0 10V4Z" fill="url(#paint8_linear_594_33)"/>
<path d="M10 0C11.8856 0 12.8284 0 13.4142 0.585786C14 1.17157 14 2.11438 14 4V10C14 11.8856 14 12.8284 13.4142 13.4142C12.8284 14 11.8856 14 10 14V0Z" fill="url(#paint9_linear_594_33)"/>
<path d="M0 4C0 2.11438 0 1.17157 0.585786 0.585786C1.17157 0 2.11438 0 4 0H10C11.8856 0 12.8284 0 13.4142 0.585786C14 1.17157 14 2.11438 14 4L0 4Z" fill="url(#paint10_linear_594_33)"/>
<path d="M0 10H14C14 11.8856 14 12.8284 13.4142 13.4142C12.8284 14 11.8856 14 10 14H4C2.11438 14 1.17157 14 0.585786 13.4142C0 12.8284 0 11.8856 0 10Z" fill="url(#paint11_linear_594_33)"/>
<g filter="url(#filter0_d_594_33)">
<rect x="10" y="10" width="20" height="20" rx="2" fill="url(#paint12_linear_594_33)"/>
</g>
<rect x="12" y="20" width="4" height="4" fill="white"/>
<rect x="16" y="24" width="4" height="4" fill="white"/>
<rect x="16" y="16" width="4" height="4" fill="white"/>
<rect x="20" y="20" width="4" height="4" fill="white"/>
<rect x="24" y="24" width="4" height="4" fill="white"/>
<rect x="20" y="12" width="4" height="4" fill="white"/>
<rect x="24" y="16" width="4" height="4" fill="white"/>
<rect x="12" y="12" width="4" height="4" fill="white"/>
</g>
<defs>
<filter id="filter0_d_594_33" x="9" y="9" width="22" height="22" filterUnits="userSpaceOnUse" color-interpolation-filters="sRGB">
<feFlood flood-opacity="0" result="BackgroundImageFix"/>
<feColorMatrix in="SourceAlpha" type="matrix" values="0 0 0 0 0 0 0 0 0 0 0 0 0 0 0 0 0 0 127 0" result="hardAlpha"/>
<feOffset/>
<feGaussianBlur stdDeviation="0.5"/>
<feComposite in2="hardAlpha" operator="out"/>
<feColorMatrix type="matrix" values="0 0 0 0 0 0 0 0 0 0 0 0 0 0 0 0 0 0 0.25 0"/>
<feBlend mode="normal" in2="BackgroundImageFix" result="effect1_dropShadow_594_33"/>
<feBlend mode="normal" in="SourceGraphic" in2="effect1_dropShadow_594_33" result="shape"/>
</filter>
<linearGradient id="paint0_linear_594_33" x1="-3.06871e-07" y1="32" x2="29.0937" y2="11.4063" gradientUnits="userSpaceOnUse">
<stop offset="0.153461" stop-color="#FF1F1F"/>
<stop offset="1" stop-color="#FF6C02"/>
</linearGradient>
<linearGradient id="paint1_linear_594_33" x1="-3.06871e-07" y1="32" x2="29.0937" y2="11.4063" gradientUnits="userSpaceOnUse">
<stop offset="0.153461" stop-color="#FF1F1F"/>
<stop offset="1" stop-color="#FF6C02"/>
</linearGradient>
<linearGradient id="paint2_linear_594_33" x1="-3.06871e-07" y1="32" x2="29.0937" y2="11.4063" gradientUnits="userSpaceOnUse">
<stop offset="0.153461" stop-color="#FF1F1F"/>
<stop offset="1" stop-color="#FF6C02"/>
</linearGradient>
<linearGradient id="paint3_linear_594_33" x1="-3.06871e-07" y1="32" x2="29.0937" y2="11.4063" gradientUnits="userSpaceOnUse">
<stop offset="0.153461" stop-color="#FF1F1F"/>
<stop offset="1" stop-color="#FF6C02"/>
</linearGradient>
<linearGradient id="paint4_linear_594_33" x1="32" y1="0" x2="10.5" y2="29.7187" gradientUnits="userSpaceOnUse">
<stop offset="0.153461" stop-color="#FF1F1F"/>
<stop offset="1" stop-color="#FF6C02"/>
</linearGradient>
<linearGradient id="paint5_linear_594_33" x1="32" y1="0" x2="10.5" y2="29.7187" gradientUnits="userSpaceOnUse">
<stop offset="0.153461" stop-color="#FF1F1F"/>
<stop offset="1" stop-color="#FF6C02"/>
</linearGradient>
<linearGradient id="paint6_linear_594_33" x1="32" y1="0" x2="10.5" y2="29.7187" gradientUnits="userSpaceOnUse">
<stop offset="0.153461" stop-color="#FF1F1F"/>
<stop offset="1" stop-color="#FF6C02"/>
</linearGradient>
<linearGradient id="paint7_linear_594_33" x1="32" y1="0" x2="10.5" y2="29.7187" gradientUnits="userSpaceOnUse">
<stop offset="0.153461" stop-color="#FF1F1F"/>
<stop offset="1" stop-color="#FF6C02"/>
</linearGradient>
<linearGradient id="paint8_linear_594_33" x1="0" y1="0" x2="29.6562" y2="29.4375" gradientUnits="userSpaceOnUse">
<stop offset="0.153461" stop-color="#FF1F1F"/>
<stop offset="1" stop-color="#FF6C02"/>
</linearGradient>
<linearGradient id="paint9_linear_594_33" x1="0" y1="0" x2="29.6562" y2="29.4375" gradientUnits="userSpaceOnUse">
<stop offset="0.153461" stop-color="#FF1F1F"/>
<stop offset="1" stop-color="#FF6C02"/>
</linearGradient>
<linearGradient id="paint10_linear_594_33" x1="0" y1="0" x2="29.6562" y2="29.4375" gradientUnits="userSpaceOnUse">
<stop offset="0.153461" stop-color="#FF1F1F"/>
<stop offset="1" stop-color="#FF6C02"/>
</linearGradient>
<linearGradient id="paint11_linear_594_33" x1="0" y1="0" x2="29.6562" y2="29.4375" gradientUnits="userSpaceOnUse">
<stop offset="0.153461" stop-color="#FF1F1F"/>
<stop offset="1" stop-color="#FF6C02"/>
</linearGradient>
<linearGradient id="paint12_linear_594_33" x1="10.5938" y1="10.6875" x2="29.0937" y2="30" gradientUnits="userSpaceOnUse">
<stop stop-color="#FF4747"/>
<stop offset="1" stop-color="#FF1F1F"/>
</linearGradient>
<clipPath id="clip0_594_33">
<rect width="32" height="32" fill="white"/>
</clipPath>
</defs>
</svg>