<svg width="32" height="32" viewBox="0 0 32 32" fill="none" xmlns="http://www.w3.org/2000/svg">
<g clip-path="url(#clip0_594_33)">
<path d="M0 20C0 18.1144 0 17.1716 0.585786 16.5858C1.17157 16 2.11438 16 4 16V16V30V30C2.11438 30 1.17157 30 0.585786 29.4142C0 28.8284 0 27.8856 0 26V20Z" fill="#FF3434"/>
<path d="M0 20C0 18.1144 0 17.1716 0.585786 16.5858C1.17157 16 2.11438 16 4 16H10C11.8856 16 12.8284 16 13.4142 16.5858C14 17.1716 14 18.1144 14 20V20H0V20Z" fill="url(#paint0_linear_594_33)"/>
<path d="M0 26H14V26C14 27.8856 14 28.8284 13.4142 29.4142C12.8284 30 11.8856 30 10 30H4C2.11438 30 1.17157 30 0.585786 29.4142C0 28.8284 0 27.8856 0 26V26Z" fill="url(#paint1_linear_594_33)"/>
<path d="M26 0V0C27.8856 0 28.8284 0 29.4142 0.585786C30 1.17157 30 2.11438 30 4V10C30 11.8856 30 12.8284 29.4142 13.4142C28.8284 14 27.8856 14 26 14V14V0Z" fill="url(#paint2_linear_594_33)"/>
<path d="M16 4C16 2.11438 16 1.17157 16.5858 0.585786C17.1716 0 18.1144 0 20 0V0V14V14C18.1144 14 17.1716 14 16.5858 13.4142C16 12.8284 16 11.8856 16 10V4Z" fill="url(#paint3_linear_594_33)"/>
<path d="M16 4C16 2.11438 16 1.17157 16.5858 0.585786C17.1716 0 18.1144 0 20 0H26C27.8856 0 28.8284 0 29.4142 0.585786C30 1.17157 30 2.11438 30 4V4H16V4Z" fill="#FF3434"/>
<path d="M10 0V0C11.8856 0 12.8284 0 13.4142 0.585786C14 1.17157 14 2.11438 14 4V10C14 11.8856 14 12.8284 13.4142 13.4142C12.8284 14 11.8856 14 10 14V14V0Z" fill="url(#paint4_linear_594_33)"/>
<path d="M0 4C0 2.11438 0 1.17157 0.585786 0.585786C1.17157 0 2.11438 0 4 0V0V14V14C2.11438 14 1.17157 14 0.585786 13.4142C0 12.8284 0 11.8856 0 10V4Z" fill="#FF3434"/>
<path d="M0 4C0 2.11438 0 1.17157 0.585786 0.585786C1.17157 0 2.11438 0 4 0H10C11.8856 0 12.8284 0 13.4142 0.585786C14 1.17157 14 2.11438 14 4V4H0V4Z" fill="#FF3434"/>
<path d="M0 10H14V10C14 11.8856 14 12.8284 13.4142 13.4142C12.8284 14 11.8856 14 10 14H4C2.11438 14 1.17157 14 0.585786 13.4142C0 12.8284 0 11.8856 0 10V10Z" fill="url(#paint5_linear_594_33)"/>
<rect x="8" y="8" width="24" height="24" rx="2" fill="url(#paint6_radial_594_33)"/>
<rect x="12" y="20" width="4" height="4" rx="1" fill="white"/>
<rect x="16" y="24" width="4" height="4" rx="1" fill="white"/>
<rect x="16" y="16" width="4" height="4" rx="1" fill="white"/>
<rect x="20" y="20" width="4" height="4" rx="1" fill="white"/>
<rect x="24" y="24" width="4" height="4" rx="1" fill="white"/>
<rect x="20" y="12" width="4" height="4" rx="1" fill="white"/>
<rect x="24" y="16" width="4" height="4" rx="1" fill="white"/>
<rect x="12" y="12" width="4" height="4" rx="1" fill="white"/>
</g>
<defs>
<linearGradient id="paint0_linear_594_33" x1="4.375" y1="18" x2="14" y2="18" gradientUnits="userSpaceOnUse">
<stop stop-color="#FF3434"/>
<stop offset="1" stop-color="#991F1F"/>
</linearGradient>
<linearGradient id="paint1_linear_594_33" x1="4.28125" y1="28" x2="14" y2="28" gradientUnits="userSpaceOnUse">
<stop stop-color="#FF3434"/>
<stop offset="1" stop-color="#991F1F"/>
</linearGradient>
<linearGradient id="paint2_linear_594_33" x1="28" y1="3.9375" x2="28" y2="14" gradientUnits="userSpaceOnUse">
<stop stop-color="#FF3434"/>
<stop offset="1" stop-color="#991F1F"/>
</linearGradient>
<linearGradient id="paint3_linear_594_33" x1="18" y1="4.125" x2="18" y2="14" gradientUnits="userSpaceOnUse">
<stop stop-color="#FF3434"/>
<stop offset="1" stop-color="#991F1F"/>
</linearGradient>
<linearGradient id="paint4_linear_594_33" x1="12" y1="4.125" x2="12" y2="14" gradientUnits="userSpaceOnUse">
<stop stop-color="#FF3434"/>
<stop offset="1" stop-color="#991F1F"/>
</linearGradient>
<linearGradient id="paint5_linear_594_33" x1="4.21875" y1="12" x2="14" y2="12" gradientUnits="userSpaceOnUse">
<stop stop-color="#FF3434"/>
<stop offset="1" stop-color="#991F1F"/>
</linearGradient>
<radialGradient id="paint6_radial_594_33" cx="0" cy="0" r="1" gradientUnits="userSpaceOnUse" gradientTransform="translate(8 8) rotate(45) scale(33.9411)">
<stop stop-color="#FF7834"/>
<stop offset="1" stop-color="#FF3434"/>
</radialGradient>
<clipPath id="clip0_594_33">
<rect width="32" height="32" fill="white"/>
</clipPath>
</defs>
</svg>
