<svg width="192" height="192" viewBox="0 0 192 192" fill="none" xmlns="http://www.w3.org/2000/svg">
<g clip-path="url(#clip0_594_13)">
<path d="M0 120C0 108.686 0 103.029 3.51472 99.5147C7.02944 96 12.6863 96 24 96V96V180V180C12.6863 180 7.02944 180 3.51472 176.485C0 172.971 0 167.314 0 156V120Z" fill="#FF3434"/>
<path d="M0 120C0 108.686 0 103.029 3.51472 99.5147C7.02944 96 12.6863 96 24 96H60C71.3137 96 76.9706 96 80.4853 99.5147C84 103.029 84 108.686 84 120V120H0V120Z" fill="url(#paint0_linear_594_13)"/>
<path d="M0 156H84V156C84 167.314 84 172.971 80.4853 176.485C76.9706 180 71.3137 180 60 180H24C12.6863 180 7.02944 180 3.51472 176.485C0 172.971 0 167.314 0 156V156Z" fill="url(#paint1_linear_594_13)"/>
<path d="M156 0V0C167.314 0 172.971 0 176.485 3.51472C180 7.02944 180 12.6863 180 24V60C180 71.3137 180 76.9706 176.485 80.4853C172.971 84 167.314 84 156 84V84V0Z" fill="url(#paint2_linear_594_13)"/>
<path d="M96 24C96 12.6863 96 7.02944 99.5147 3.51472C103.029 0 108.686 0 120 0V0V84V84C108.686 84 103.029 84 99.5147 80.4853C96 76.9706 96 71.3137 96 60V24Z" fill="url(#paint3_linear_594_13)"/>
<path d="M96 24C96 12.6863 96 7.02944 99.5147 3.51472C103.029 0 108.686 0 120 0H156C167.314 0 172.971 0 176.485 3.51472C180 7.02944 180 12.6863 180 24V24H96V24Z" fill="#FF3434"/>
<path d="M60 0V0C71.3137 0 76.9706 0 80.4853 3.51472C84 7.02944 84 12.6863 84 24V60C84 71.3137 84 76.9706 80.4853 80.4853C76.9706 84 71.3137 84 60 84V84V0Z" fill="url(#paint4_linear_594_13)"/>
<path d="M0 24C0 12.6863 0 7.02944 3.51472 3.51472C7.02944 0 12.6863 0 24 0V0V84V84C12.6863 84 7.02944 84 3.51472 80.4853C0 76.9706 0 71.3137 0 60V24Z" fill="#FF3434"/>
<path d="M0 24C0 12.6863 0 7.02944 3.51472 3.51472C7.02944 0 12.6863 0 24 0H60C71.3137 0 76.9706 0 80.4853 3.51472C84 7.02944 84 12.6863 84 24V24H0V24Z" fill="#FF3434"/>
<path d="M0 60H84V60C84 71.3137 84 76.9706 80.4853 80.4853C76.9706 84 71.3137 84 60 84H24C12.6863 84 7.02944 84 3.51472 80.4853C0 76.9706 0 71.3137 0 60V60Z" fill="url(#paint5_linear_594_13)"/>
<rect x="48" y="48" width="144" height="144" rx="12" fill="url(#paint6_radial_594_13)"/>
<rect x="72" y="120" width="24" height="24" rx="6" fill="white"/>
<rect x="96" y="144" width="24" height="24" rx="6" fill="white"/>
<rect x="96" y="96" width="24" height="24" rx="6" fill="white"/>
<rect x="120" y="120" width="24" height="24" rx="6" fill="white"/>
<rect x="144" y="144" width="24" height="24" rx="6" fill="white"/>
<rect x="120" y="72" width="24" height="24" rx="6" fill="white"/>
<rect x="144" y="96" width="24" height="24" rx="6" fill="white"/>
<rect x="72" y="72" width="24" height="24" rx="6" fill="white"/>
</g>
<defs>
<linearGradient id="paint0_linear_594_13" x1="26.25" y1="108" x2="84" y2="108" gradientUnits="userSpaceOnUse">
<stop stop-color="#FF3434"/>
<stop offset="1" stop-color="#991F1F"/>
</linearGradient>
<linearGradient id="paint1_linear_594_13" x1="25.6875" y1="168" x2="84" y2="168" gradientUnits="userSpaceOnUse">
<stop stop-color="#FF3434"/>
<stop offset="1" stop-color="#991F1F"/>
</linearGradient>
<linearGradient id="paint2_linear_594_13" x1="168" y1="23.625" x2="168" y2="84" gradientUnits="userSpaceOnUse">
<stop stop-color="#FF3434"/>
<stop offset="1" stop-color="#991F1F"/>
</linearGradient>
<linearGradient id="paint3_linear_594_13" x1="108" y1="24.75" x2="108" y2="84" gradientUnits="userSpaceOnUse">
<stop stop-color="#FF3434"/>
<stop offset="1" stop-color="#991F1F"/>
</linearGradient>
<linearGradient id="paint4_linear_594_13" x1="72" y1="24.75" x2="72" y2="84" gradientUnits="userSpaceOnUse">
<stop stop-color="#FF3434"/>
<stop offset="1" stop-color="#991F1F"/>
</linearGradient>
<linearGradient id="paint5_linear_594_13" x1="25.3125" y1="72" x2="84" y2="72" gradientUnits="userSpaceOnUse">
<stop stop-color="#FF3434"/>
<stop offset="1" stop-color="#991F1F"/>
</linearGradient>
<radialGradient id="paint6_radial_594_13" cx="0" cy="0" r="1" gradientUnits="userSpaceOnUse" gradientTransform="translate(48 48) rotate(45) scale(203.647)">
<stop stop-color="#FF7834"/>
<stop offset="1" stop-color="#FF3434"/>
</radialGradient>
<clipPath id="clip0_594_13">
<rect width="192" height="192" fill="white"/>
</clipPath>
</defs>
</svg>
