<svg width="32" height="32" viewBox="0 0 32 32" fill="none" xmlns="http://www.w3.org/2000/svg">
<rect x="10" y="20" width="4" height="10" rx="1" fill="#FF1F6A"/>
<rect x="10" y="26" width="12" height="4" rx="1" fill="#FF1F6A"/>
<rect x="24" y="22" width="8" height="4" rx="1" fill="#1F4DFF"/>
<rect x="18" y="14" width="4" height="16" rx="1" fill="#FF1F6A"/>
<path d="M28 14H30C30.9428 14 31.4142 14 31.7071 14.2929C32 14.5858 32 15.0572 32 16V24C32 24.9428 32 25.4142 31.7071 25.7071C31.4142 26 30.9428 26 30 26H28V14Z" fill="#486EFF"/>
<rect y="6" width="8" height="4" rx="1" fill="#486EFF"/>
<rect x="24" y="6" width="8" height="4" rx="1" fill="#486EFF"/>
<rect x="24" y="14" width="8" height="4" rx="1" fill="#486EFF"/>
<rect y="22" width="8" height="4" rx="1" fill="#486EFF"/>
<path d="M0 8C0 7.05719 0 6.58579 0.292893 6.29289C0.585786 6 1.05719 6 2 6H4V26H2C1.05719 26 0.585786 26 0.292893 25.7071C0 25.4142 0 24.9428 0 24V8Z" fill="#1F4DFF"/>
<path d="M24 8C24 7.05719 24 6.58579 24.2929 6.29289C24.5858 6 25.0572 6 26 6H28V18H26C25.0572 18 24.5858 18 24.2929 17.7071C24 17.4142 24 16.9428 24 16V8Z" fill="#1F4DFF"/>
<rect x="10" y="14" width="12" height="4" rx="1" fill="#FF1F6A"/>
<rect x="10" y="2" width="4" height="16" rx="1" fill="#FF1F6A"/>
<rect x="10" y="2" width="12" height="4" rx="1" fill="#FF1F6A"/>
<rect x="18" y="2" width="4" height="10" rx="1" fill="#FF1F6A"/>
</svg>
