<svg width="192" height="192" viewBox="0 0 192 192" fill="none" xmlns="http://www.w3.org/2000/svg">
<rect x="60" y="120" width="24" height="60" rx="6" fill="#FF1F6A"/>
<rect x="60" y="156" width="72" height="24" rx="6" fill="#FF1F6A"/>
<rect x="144" y="132" width="48" height="24" rx="6" fill="#1F4DFF"/>
<rect x="108" y="84" width="24" height="96" rx="6" fill="#FF1F6A"/>
<path d="M168 84H180C185.657 84 188.485 84 190.243 85.7574C192 87.5147 192 90.3431 192 96V144C192 149.657 192 152.485 190.243 154.243C188.485 156 185.657 156 180 156H168V84Z" fill="#486EFF"/>
<rect y="36" width="48" height="24" rx="6" fill="#486EFF"/>
<rect x="144" y="36" width="48" height="24" rx="6" fill="#486EFF"/>
<rect x="144" y="84" width="48" height="24" rx="6" fill="#486EFF"/>
<rect y="132" width="48" height="24" rx="6" fill="#486EFF"/>
<path d="M0 48C0 42.3431 0 39.5147 1.75736 37.7574C3.51472 36 6.34315 36 12 36H24V156H12C6.34315 156 3.51472 156 1.75736 154.243C0 152.485 0 149.657 0 144V48Z" fill="#1F4DFF"/>
<path d="M144 48C144 42.3431 144 39.5147 145.757 37.7574C147.515 36 150.343 36 156 36H168V108H156C150.343 108 147.515 108 145.757 106.243C144 104.485 144 101.657 144 96V48Z" fill="#1F4DFF"/>
<rect x="60" y="84" width="72" height="24" rx="6" fill="#FF1F6A"/>
<rect x="60" y="12" width="24" height="96" rx="6" fill="#FF1F6A"/>
<rect x="60" y="12" width="72" height="24" rx="6" fill="#FF1F6A"/>
<rect x="108" y="12" width="24" height="60" rx="6" fill="#FF1F6A"/>
</svg>
