<svg width="32" height="32" viewBox="0 0 32 32" fill="none" xmlns="http://www.w3.org/2000/svg">
<path d="M4.84237 10.5578L15.9637 21.6791C17.4202 23.1356 17.4202 25.4972 15.9636 26.9537L14.851 28.0664C13.3945 29.5229 11.0329 29.5229 9.57637 28.0664L1.09242 19.5824C-0.36414 18.1258 -0.364138 15.7643 1.09242 14.3077L4.84237 10.5578Z" fill="url(#paint0_linear_539_342)"/>
<path d="M5.81354 24.3441L27.1576 3L30.9076 6.74995C32.3641 8.20651 32.3641 10.5681 30.9076 12.0246L14.8382 28.094C13.3816 29.5506 11.0201 29.5506 9.5635 28.094L5.81354 24.3441Z" fill="url(#paint1_linear_539_342)"/>
<defs>
<linearGradient id="paint0_linear_539_342" x1="2.28468" y1="15.7723" x2="19.8797" y2="12.2371" gradientUnits="userSpaceOnUse">
<stop stop-color="#6F15B6"/>
<stop offset="1" stop-color="#4C127A"/>
</linearGradient>
<linearGradient id="paint1_linear_539_342" x1="25.0878" y1="12.878" x2="6.61391" y2="24.5043" gradientUnits="userSpaceOnUse">
<stop stop-color="#AD45FF"/>
<stop offset="1" stop-color="#7B20C4"/>
</linearGradient>
</defs>
</svg>
