<svg width="192" height="192" viewBox="0 0 192 192" fill="none" xmlns="http://www.w3.org/2000/svg">
<path d="M29.0542 62.9718L95.7819 129.699C104.521 138.439 104.521 152.608 95.7819 161.347L89.1062 168.023C80.3668 176.762 66.1975 176.762 57.4582 168.023L6.5545 117.119C-2.18484 108.38 -2.18483 94.2108 6.55451 85.4715L29.0542 62.9718Z" fill="url(#paint0_linear_539_324)"/>
<path d="M34.8813 145.69L162.946 17.625L185.445 40.1247C194.185 48.8641 194.185 63.0333 185.445 71.7727L89.029 168.189C80.2896 176.929 66.1203 176.929 57.381 168.189L34.8813 145.69Z" fill="url(#paint1_linear_539_324)"/>
<defs>
<linearGradient id="paint0_linear_539_324" x1="13.7081" y1="94.2586" x2="119.278" y2="73.0475" gradientUnits="userSpaceOnUse">
<stop stop-color="#6F15B6"/>
<stop offset="1" stop-color="#4C127A"/>
</linearGradient>
<linearGradient id="paint1_linear_539_324" x1="150.527" y1="76.8931" x2="39.6835" y2="146.651" gradientUnits="userSpaceOnUse">
<stop stop-color="#AD45FF"/>
<stop offset="1" stop-color="#7B20C4"/>
</linearGradient>
</defs>
</svg>
