<svg width="192" height="192" viewBox="0 0 192 192" fill="none" xmlns="http://www.w3.org/2000/svg">
<g clip-path="url(#clip0_629_253)">
<path d="M12.8431 48H48V96H0C0 78.5142 4.67493 62.1203 12.8431 48Z" fill="url(#paint0_linear_629_253)"/>
<path d="M12.8431 144C4.67493 129.88 0 113.486 0 96H48V144H12.8431Z" fill="url(#paint1_linear_629_253)"/>
<path d="M47.9999 179.157C33.4258 170.726 21.2737 158.574 12.843 144H47.9999V179.157Z" fill="url(#paint2_linear_629_253)"/>
<rect x="48" y="48" width="48" height="48" fill="url(#paint3_linear_629_253)"/>
<rect x="48" y="96" width="48" height="48" fill="url(#paint4_linear_629_253)"/>
<path d="M48 179.157V144H96V192C78.5142 192 62.1203 187.325 48 179.157Z" fill="url(#paint5_linear_629_253)"/>
<path d="M96 0V48H144V12.8431C129.88 4.67493 113.486 0 96 0Z" fill="url(#paint6_linear_629_253)"/>
<rect x="96" y="48" width="48" height="48" fill="url(#paint7_linear_629_253)"/>
<rect x="96" y="96" width="48" height="48" fill="url(#paint8_linear_629_253)"/>
<path d="M144 179.157C129.88 187.325 113.486 192 96 192V144H144V179.157Z" fill="url(#paint9_linear_629_253)"/>
<path d="M144 12.8428C158.574 21.2735 170.726 33.4255 179.157 47.9997H144V12.8428Z" fill="url(#paint10_linear_629_253)"/>
<path d="M179.157 48C187.325 62.1203 192 78.5142 192 96H144V48H179.157Z" fill="url(#paint11_linear_629_253)"/>
<path d="M179.157 144C187.325 129.88 192 113.486 192 96H144V144H179.157Z" fill="url(#paint12_linear_629_253)"/>
<path d="M179.157 144C170.726 158.574 158.574 170.726 144 179.157V144H179.157Z" fill="url(#paint13_linear_629_253)"/>
<path d="M48 12.8431C62.1203 4.67493 78.5142 0 96 0V48H48V12.8431Z" fill="url(#paint14_linear_629_253)"/>
<path d="M12.843 47.9997C21.2737 33.4255 33.4258 21.2735 47.9999 12.8428V47.9997H12.843Z" fill="#F9D101"/>
</g>
<defs>
<linearGradient id="paint0_linear_629_253" x1="24" y1="96" x2="24" y2="-0.375" gradientUnits="userSpaceOnUse">
<stop offset="0.25" stop-color="#E9D407"/>
<stop offset="1" stop-color="#837704"/>
</linearGradient>
<linearGradient id="paint1_linear_629_253" x1="24" y1="144" x2="24" y2="47.4375" gradientUnits="userSpaceOnUse">
<stop offset="0.25" stop-color="#C3DA16"/>
<stop offset="1" stop-color="#68740C"/>
</linearGradient>
<linearGradient id="paint2_linear_629_253" x1="30.4215" y1="192.562" x2="30.4215" y2="95.25" gradientUnits="userSpaceOnUse">
<stop offset="0.25" stop-color="#9CE026"/>
<stop offset="1" stop-color="#557A15"/>
</linearGradient>
<linearGradient id="paint3_linear_629_253" x1="96" y1="96" x2="-0.937502" y2="-0.187499" gradientUnits="userSpaceOnUse">
<stop offset="0.25" stop-color="#C3DA16"/>
<stop offset="1" stop-color="#68740C"/>
</linearGradient>
<linearGradient id="paint4_linear_629_253" x1="72" y1="144" x2="72" y2="47.25" gradientUnits="userSpaceOnUse">
<stop offset="0.25" stop-color="#9CE026"/>
<stop offset="1" stop-color="#557A15"/>
</linearGradient>
<linearGradient id="paint5_linear_629_253" x1="72" y1="192" x2="72" y2="94.3125" gradientUnits="userSpaceOnUse">
<stop offset="0.25" stop-color="#75E635"/>
<stop offset="1" stop-color="#41801D"/>
</linearGradient>
<linearGradient id="paint6_linear_629_253" x1="144" y1="24" x2="48.75" y2="24" gradientUnits="userSpaceOnUse">
<stop offset="0.254293" stop-color="#C3DA16"/>
<stop offset="1" stop-color="#68740C"/>
</linearGradient>
<linearGradient id="paint7_linear_629_253" x1="144" y1="72" x2="47.625" y2="72" gradientUnits="userSpaceOnUse">
<stop offset="0.250149" stop-color="#9CE026"/>
<stop offset="1" stop-color="#557A15"/>
</linearGradient>
<linearGradient id="paint8_linear_629_253" x1="144" y1="144" x2="48.5625" y2="48.375" gradientUnits="userSpaceOnUse">
<stop offset="0.25" stop-color="#74E736"/>
<stop offset="1" stop-color="#41811E"/>
</linearGradient>
<linearGradient id="paint9_linear_629_253" x1="120" y1="192" x2="120" y2="95.25" gradientUnits="userSpaceOnUse">
<stop offset="0.25" stop-color="#4EED45"/>
<stop offset="1" stop-color="#2C8727"/>
</linearGradient>
<linearGradient id="paint10_linear_629_253" x1="192.375" y1="30.3748" x2="96.375" y2="30.3748" gradientUnits="userSpaceOnUse">
<stop offset="0.249589" stop-color="#9CE026"/>
<stop offset="1" stop-color="#557A15"/>
</linearGradient>
<linearGradient id="paint11_linear_629_253" x1="192" y1="72" x2="95.8125" y2="72" gradientUnits="userSpaceOnUse">
<stop offset="0.25" stop-color="#75E635"/>
<stop offset="1" stop-color="#41801D"/>
</linearGradient>
<linearGradient id="paint12_linear_629_253" x1="192" y1="120" x2="95.25" y2="120" gradientUnits="userSpaceOnUse">
<stop offset="0.25" stop-color="#4EED45"/>
<stop offset="1" stop-color="#2C8727"/>
</linearGradient>
<linearGradient id="paint13_linear_629_253" x1="192" y1="192.375" x2="96.1875" y2="95.4375" gradientUnits="userSpaceOnUse">
<stop offset="0.25" stop-color="#26F355"/>
<stop offset="1" stop-color="#168D31"/>
</linearGradient>
<linearGradient id="paint14_linear_629_253" x1="96" y1="24" x2="-0.187499" y2="24" gradientUnits="userSpaceOnUse">
<stop offset="0.26" stop-color="#E9D407"/>
<stop offset="1" stop-color="#837704"/>
</linearGradient>
<clipPath id="clip0_629_253">
<rect width="192" height="192" fill="white"/>
</clipPath>
</defs>
</svg>
