<svg width="32" height="32" viewBox="0 0 32 32" fill="none" xmlns="http://www.w3.org/2000/svg">
<path d="M4 11.2C4 10.0799 4 9.51984 4.21799 9.09202C4.40973 8.71569 4.71569 8.40973 5.09202 8.21799C5.51984 8 6.0799 8 7.2 8H24.8C25.9201 8 26.4802 8 26.908 8.21799C27.2843 8.40973 27.5903 8.71569 27.782 9.09202C28 9.51984 28 10.0799 28 11.2V20C28 23.7275 28 25.5913 27.391 27.0615C26.5791 29.0217 25.0217 30.5791 23.0615 31.391C21.5913 32 19.7275 32 16 32V32C12.2725 32 10.4087 32 8.93853 31.391C6.97831 30.5791 5.42092 29.0217 4.60896 27.0615C4 25.5913 4 23.7275 4 20V11.2Z" fill="url(#paint0_linear_685_79)"/>
<path d="M8 3.2C8 2.07989 8 1.51984 8.21799 1.09202C8.40973 0.715695 8.71569 0.409734 9.09202 0.217987C9.51984 0 10.0799 0 11.2 0H20.8C21.9201 0 22.4802 0 22.908 0.217987C23.2843 0.409734 23.5903 0.715695 23.782 1.09202C24 1.51984 24 2.07989 24 3.2V8H8V3.2Z" fill="url(#paint1_linear_685_79)"/>
<rect x="18" y="2" width="2" height="4" rx="1" fill="black"/>
<rect x="12" y="2" width="2" height="4" rx="1" fill="black"/>
<g filter="url(#filter0_d_685_79)">
<path fill-rule="evenodd" clip-rule="evenodd" d="M16 11C16.5523 11 17 11.4477 17 12V20.9194L20 18.5194V14C20 13.4477 20.4477 13 21 13C21.5523 13 22 13.4477 22 14V18.5194C22 19.1269 21.7238 19.7016 21.2494 20.0811L17 23.4806V25.992C17 25.9978 17 26.0035 17 26.0092V28C17 28.5523 16.5523 29 16 29C15.4477 29 15 28.5523 15 28V26.4806L10.7506 23.0811C10.2762 22.7016 10 22.1269 10 21.5194V17C10 16.4477 10.4477 16 11 16C11.5523 16 12 16.4477 12 17V21.5194L15 23.9194V23.0094C14.9999 23.0036 14.9999 22.9977 15 22.9919V12C15 11.4477 15.4477 11 16 11Z" fill="white"/>
</g>
<defs>
<filter id="filter0_d_685_79" x="9" y="10.25" width="14" height="20" filterUnits="userSpaceOnUse" color-interpolation-filters="sRGB">
<feFlood flood-opacity="0" result="BackgroundImageFix"/>
<feColorMatrix in="SourceAlpha" type="matrix" values="0 0 0 0 0 0 0 0 0 0 0 0 0 0 0 0 0 0 127 0" result="hardAlpha"/>
<feOffset dy="0.25"/>
<feGaussianBlur stdDeviation="0.5"/>
<feComposite in2="hardAlpha" operator="out"/>
<feColorMatrix type="matrix" values="0 0 0 0 0 0 0 0 0 0 0 0 0 0 0 0 0 0 0.25 0"/>
<feBlend mode="normal" in2="BackgroundImageFix" result="effect1_dropShadow_685_79"/>
<feBlend mode="normal" in="SourceGraphic" in2="effect1_dropShadow_685_79" result="shape"/>
</filter>
<linearGradient id="paint0_linear_685_79" x1="26.3125" y1="7.375" x2="4" y2="33.6562" gradientUnits="userSpaceOnUse">
<stop stop-color="#2C90E2"/>
<stop offset="1" stop-color="#1F2AF5"/>
</linearGradient>
<linearGradient id="paint1_linear_685_79" x1="16" y1="0" x2="16" y2="12.75" gradientUnits="userSpaceOnUse">
<stop stop-color="#EBEBEB"/>
<stop offset="1" stop-color="#999999"/>
</linearGradient>
</defs>
</svg>
