<svg width="192" height="192" viewBox="0 0 192 192" fill="none" xmlns="http://www.w3.org/2000/svg">
<rect x="24" y="48" width="144" height="144" rx="12" fill="url(#paint0_linear_685_55)"/>
<path d="M48 19.2C48 12.4794 48 9.11905 49.3079 6.55211C50.4584 4.29417 52.2942 2.4584 54.5521 1.30792C57.1191 0 60.4794 0 67.2 0H124.8C131.521 0 134.881 0 137.448 1.30792C139.706 2.4584 141.542 4.29417 142.692 6.55211C144 9.11905 144 12.4794 144 19.2V48H48V19.2Z" fill="url(#paint1_linear_685_55)"/>
<rect x="108" y="12" width="12" height="24" rx="6" fill="black"/>
<rect x="72" y="12" width="12" height="24" rx="6" fill="black"/>
<g filter="url(#filter0_d_685_55)">
<path fill-rule="evenodd" clip-rule="evenodd" d="M96 66C99.3137 66 102 68.6863 102 72V125.516L120 111.116V84C120 80.6863 122.686 78 126 78C129.314 78 132 80.6863 132 84V111.116C132 114.762 130.343 118.209 127.496 120.487L102 140.884V155.952C102 155.987 102 156.021 102 156.055V168C102 171.314 99.3137 174 96 174C92.6863 174 90 171.314 90 168V158.884L64.5037 138.487C61.6571 136.209 60 132.762 60 129.116V102C60 98.6863 62.6863 96 66 96C69.3137 96 72 98.6863 72 102V129.116L90 143.516V138.056C89.9997 138.021 89.9997 137.986 90 137.951V72C90 68.6863 92.6863 66 96 66Z" fill="white"/>
</g>
<defs>
<filter id="filter0_d_685_55" x="54" y="61.5" width="84" height="120" filterUnits="userSpaceOnUse" color-interpolation-filters="sRGB">
<feFlood flood-opacity="0" result="BackgroundImageFix"/>
<feColorMatrix in="SourceAlpha" type="matrix" values="0 0 0 0 0 0 0 0 0 0 0 0 0 0 0 0 0 0 127 0" result="hardAlpha"/>
<feOffset dy="1.5"/>
<feGaussianBlur stdDeviation="3"/>
<feComposite in2="hardAlpha" operator="out"/>
<feColorMatrix type="matrix" values="0 0 0 0 0 0 0 0 0 0 0 0 0 0 0 0 0 0 0.25 0"/>
<feBlend mode="normal" in2="BackgroundImageFix" result="effect1_dropShadow_685_55"/>
<feBlend mode="normal" in="SourceGraphic" in2="effect1_dropShadow_685_55" result="shape"/>
</filter>
<linearGradient id="paint0_linear_685_55" x1="157.875" y1="44.25" x2="24" y2="201.937" gradientUnits="userSpaceOnUse">
<stop stop-color="#2C90E2"/>
<stop offset="1" stop-color="#1F2AF5"/>
</linearGradient>
<linearGradient id="paint1_linear_685_55" x1="96" y1="0" x2="96" y2="76.5" gradientUnits="userSpaceOnUse">
<stop stop-color="#EBEBEB"/>
<stop offset="1" stop-color="#999999"/>
</linearGradient>
</defs>
</svg>