<svg width="512" height="513" viewBox="0 0 512 513" fill="none" xmlns="http://www.w3.org/2000/svg">
<g clip-path="url(#clip0_563_5)">
<path d="M481.863 0.163574L440.734 460.91L255.858 512.164L71.492 460.982L30.4067 0.163574H481.863Z" fill="#264DE4"/>
<path d="M256.135 472.988L405.523 431.571L440.67 37.8423H256.135V472.988Z" fill="#2965F1"/>
<path d="M256.135 208.753H124.594L129.659 265.27H256.135V208.753Z" fill="#EBEBEB"/>
<path d="M256.134 94.3628H255.939H114.415L119.553 150.881H256.134V94.3628Z" fill="#EBEBEB"/>
<path d="M132.185 293.53L140.103 382.271L255.875 414.41L256.135 414.338V355.536L255.887 355.602L192.943 338.606L188.919 293.53H158.333H132.185Z" fill="#EBEBEB"/>
<path d="M325.536 265.273L318.975 338.572L255.94 355.585V414.385L371.805 382.273L372.655 372.724L385.936 223.932L387.315 208.756L397.518 94.3628H255.94V150.881H335.579L330.437 208.756H255.94V265.273H325.536Z" fill="white"/>
</g>
<defs>
<clipPath id="clip0_563_5">
<rect width="512" height="512" fill="white" transform="translate(0.0065918 0.163574)"/>
</clipPath>
</defs>
</svg>
