<svg width="513" height="513" viewBox="0 0 513 513" fill="none" xmlns="http://www.w3.org/2000/svg">
<path fill-rule="evenodd" clip-rule="evenodd" d="M256.61 32.6489C300.913 32.6489 344.221 45.7863 381.058 70.3997C417.895 95.0132 446.605 129.997 463.559 170.928C480.513 211.858 484.949 256.897 476.306 300.349C467.663 343.801 446.329 383.714 415.002 415.041C383.675 446.368 343.762 467.702 300.311 476.345C256.859 484.988 211.82 480.552 170.889 463.598C129.959 446.644 94.9746 417.933 70.3612 381.097C45.7477 344.26 32.6104 300.952 32.6104 256.649C32.6104 197.24 56.2103 140.265 98.2184 98.257C140.227 56.2489 197.202 32.6489 256.61 32.6489Z" fill="#CC6699"/>
<path d="M397.122 128.521C386.978 88.745 321.01 75.721 258.578 97.833C219.479 110.971 183.355 131.692 152.274 158.809C117.89 190.969 112.402 218.969 114.658 230.665C122.658 271.945 179.186 298.921 202.434 318.937V319.049C195.586 322.425 145.41 347.849 133.634 373.769C121.25 401.161 135.602 420.809 145.122 423.449C159.415 426.89 174.427 425.77 188.051 420.246C201.676 414.723 213.229 405.072 221.09 392.649C227.587 382.584 231.652 371.144 232.963 359.236C234.273 347.328 232.794 335.278 228.642 324.041C239.84 321.196 251.48 320.528 262.93 322.073C302.226 326.665 309.938 351.193 308.466 361.465C307.774 365.121 306.302 368.586 304.152 371.623C302.001 374.66 299.221 377.198 296.002 379.065C293.25 380.777 292.402 381.353 292.642 382.633C292.978 384.473 294.242 384.409 296.594 384.009C302.499 382.149 307.703 378.544 311.519 373.669C315.334 368.793 317.584 362.876 317.97 356.697C318.914 332.697 295.858 305.721 255.026 306.409C243.167 306.07 231.333 307.692 220.002 311.209C219.442 310.569 218.866 309.929 218.274 309.289C193.026 282.361 146.37 263.305 148.338 227.097C149.058 213.929 153.634 179.273 237.938 137.225C307.058 102.777 362.386 112.265 371.954 133.273C385.618 163.289 342.386 219.049 270.61 227.097C262.677 228.708 254.483 228.511 246.636 226.522C238.789 224.534 231.491 220.804 225.282 215.609C221.506 211.449 220.946 211.273 219.538 212.041C217.25 213.305 218.706 216.985 219.538 219.161C222.287 224.114 225.996 228.469 230.45 231.969C234.904 235.469 240.012 238.045 245.474 239.545C273.695 245.677 303.13 242.766 329.602 231.225C373.138 214.441 407.09 167.641 397.122 128.521ZM212.098 331.257C215.276 342.212 215.115 353.866 211.634 364.729C211.261 365.86 210.85 366.98 210.402 368.089C209.954 369.198 209.469 370.265 208.946 371.289C206.254 376.798 202.766 381.882 198.594 386.377C185.586 400.569 167.394 405.945 159.602 401.417C151.186 396.537 155.394 376.521 170.482 360.569C182.076 349.105 195.442 339.585 210.066 332.377L212.098 331.257Z" fill="white"/>
</svg>
