<?xml version="1.0" standalone="no"?>
<!DOCTYPE svg PUBLIC "-//W3C//DTD SVG 20010904//EN"
 "http://www.w3.org/TR/2001/REC-SVG-20010904/DTD/svg10.dtd">
<svg version="1.0" xmlns="http://www.w3.org/2000/svg"
 width="512.000000pt" height="512.000000pt" viewBox="0 0 512.000000 512.000000"
 preserveAspectRatio="xMidYMid meet">
<metadata>
Created by potrace 1.14, written by Peter Selinger 2001-2017
</metadata>
<g transform="translate(0.000000,512.000000) scale(0.100000,-0.100000)"
fill="#000000" stroke="none">
<path d="M833 4370 c-49 -20 -47 22 -48 -1250 l0 -1195 -181 -3 c-178 -2 -181
-3 -204 -27 -27 -28 -33 -49 -25 -83 7 -28 1737 -1761 1760 -1763 8 -1 21 -2
28 -4 6 -1 23 5 36 13 38 23 451 440 452 457 1 8 2 22 2 30 0 8 -1 20 -2 27 0
7 -132 143 -291 303 l-291 291 1238 -1 c686 0 1250 3 1266 8 61 20 57 -71 57
1354 l0 1302 -24 28 -24 28 -236 0 c-130 0 -237 2 -237 5 -1 3 -2 100 -3 215
-2 224 -7 248 -52 265 -31 12 -3191 12 -3221 0z"/>
</g>
</svg>
