<svg viewBox="0 0 65 65" fill="none" xmlns="http://www.w3.org/2000/svg">
<g clip-path="url(#clip0_494_16)">
<path d="M60.9264 0.471344L55.7853 58.0647L32.6758 64.4713L9.63004 58.0737L4.49438 0.471344H60.9264Z" fill="#264DE4"/>
<path d="M32.7104 59.5743L51.384 54.3973L55.7774 5.18118H32.7104V59.5743Z" fill="#2965F1"/>
<path d="M32.7104 26.5451H16.2678L16.901 33.6097H32.7104V26.5451Z" fill="#EBEBEB"/>
<path d="M32.7104 12.246H32.686H14.9955L15.6377 19.3108H32.7104V12.246Z" fill="#EBEBEB"/>
<path d="M17.2166 37.1422L18.2063 48.2348L32.6778 52.2521L32.7103 52.2431V44.8929L32.6794 44.9011L24.8114 42.7766L24.3084 37.1422H20.4852H17.2166Z" fill="#EBEBEB"/>
<path d="M41.3853 33.6097L40.5653 42.7721L32.6859 44.8988V52.2487L47.1689 48.2348L47.2752 47.0412L48.9353 28.4422L49.1077 26.5451L50.3831 12.246H32.6859V19.3108H42.6408L41.998 26.5451H32.6859V33.6097H41.3853Z" fill="white"/>
</g>
<defs>
<clipPath id="clip0_494_16">
<rect width="64" height="64" fill="white" transform="translate(0.694336 0.471344)"/>
</clipPath>
</defs>
</svg>
