<svg width="32" height="32" viewBox="0 0 32 32" fill="none" xmlns="http://www.w3.org/2000/svg">
<g clip-path="url(#clip0_536_18)">
<rect y="10" width="8" height="22" rx="2" fill="#FF1414"/>
<path d="M14.9313 19.5763C13.6165 18.5155 12.959 17.985 12.8886 17.5208C12.8276 17.1189 12.9741 16.7135 13.2789 16.4404C13.6311 16.125 14.4801 16.125 16.1782 16.125H30.0296C30.7193 16.125 31.0641 16.125 31.3276 16.2575C31.5593 16.3741 31.7477 16.5601 31.8658 16.7888C32 17.0489 32 17.3893 32 18.0702V29.246C32 30.5567 32 31.2121 31.7285 31.5457C31.4925 31.8357 31.135 32.0031 30.7581 32C30.3247 31.9964 29.8107 31.5816 28.7826 30.7521L14.9313 19.5763Z" fill="url(#paint0_linear_536_18)"/>
<rect x="20" width="7.89744" height="20" rx="2" transform="rotate(90 20 0)" fill="url(#paint1_linear_536_18)"/>
<path d="M31.0477 3.02574C31.6985 2.0423 32.0239 1.55059 31.9986 1.14307C31.9766 0.788019 31.8005 0.460331 31.5166 0.246004C31.1908 0 30.6011 0 29.4219 0H11.9496C11.2672 0 10.926 0 10.6653 0.132816C10.436 0.249644 10.2496 0.43606 10.1328 0.665348C10 0.926014 10 1.26724 10 1.9497V28.3519C10 30.2994 10 31.2731 10.3413 31.6271C10.636 31.9329 11.0688 32.0632 11.4833 31.9709C11.9633 31.864 12.5007 31.052 13.5754 29.4279L31.0477 3.02574Z" fill="#FF1414"/>
</g>
<defs>
<linearGradient id="paint0_linear_536_18" x1="32.7184" y1="31.9803" x2="9.10159" y2="12.636" gradientUnits="userSpaceOnUse">
<stop offset="0.388321" stop-color="#E80000"/>
<stop offset="1" stop-color="#820000"/>
</linearGradient>
<linearGradient id="paint1_linear_536_18" x1="23.8974" y1="20" x2="23.8974" y2="-5.84615" gradientUnits="userSpaceOnUse">
<stop offset="0.239659" stop-color="#E80000"/>
<stop offset="1" stop-color="#820000"/>
</linearGradient>
<clipPath id="clip0_536_18">
<rect width="32" height="32" fill="white"/>
</clipPath>
</defs>
</svg>
