<svg viewBox="0 0 512 512" fill="none" xmlns="http://www.w3.org/2000/svg">
<g clip-path="url(#clip0_410_2)">
<rect y="154" width="126" height="358" rx="19.6923" fill="#FF1414"/>
<path d="M238.901 313.221C217.863 296.247 207.345 287.761 206.218 280.333C205.242 273.903 207.586 267.416 212.463 263.047C218.097 258 231.682 258 258.852 258H480.473C491.509 258 497.026 258 501.241 260.12C504.949 261.985 507.963 264.961 509.852 268.621C512 272.782 512 278.229 512 289.123V467.936C512 488.908 512 499.394 507.657 504.731C503.88 509.371 498.16 512.049 492.13 511.999C485.196 511.942 476.971 505.306 460.522 492.034L238.901 313.221Z" fill="url(#paint0_linear_410_2)"/>
<rect x="320" width="126.359" height="320" rx="19.6923" transform="rotate(90 320 0)" fill="url(#paint1_linear_410_2)"/>
<path d="M496.504 48.4118C507.094 32.6769 512.389 24.8094 511.978 18.2891C511.619 12.6083 508.754 7.3653 504.134 3.93607C498.831 0 489.237 0 470.047 0H185.725C174.62 0 169.068 0 164.826 2.12505C161.096 3.9943 158.062 6.97697 156.161 10.6456C154 14.8162 154 20.2759 154 31.1953V453.63C154 484.79 154 500.37 159.553 506.034C164.35 510.927 171.392 513.011 178.138 511.534C185.948 509.824 194.692 496.831 212.182 470.846L496.504 48.4118Z" fill="#FF1414"/>
</g>
<defs>
<linearGradient id="paint0_linear_410_2" x1="523.494" y1="511.685" x2="145.625" y2="202.175" gradientUnits="userSpaceOnUse">
<stop offset="0.388321" stop-color="#E80000"/>
<stop offset="1" stop-color="#820000"/>
</linearGradient>
<linearGradient id="paint1_linear_410_2" x1="382.359" y1="320" x2="382.359" y2="-93.5384" gradientUnits="userSpaceOnUse">
<stop offset="0.239659" stop-color="#E80000"/>
<stop offset="1" stop-color="#820000"/>
</linearGradient>
<clipPath id="clip0_410_2">
<rect width="512" height="512" fill="white"/>
</clipPath>
</defs>
</svg>