<svg viewBox="0 0 2560 2560" fill="none" xmlns="http://www.w3.org/2000/svg">
<path d="M2375.4 2067.68H184.6C82.8 2067.68 0 1984.88 0 1883.08V676.92C0 575.12 82.8 492.32 184.6 492.32H2375.36C2477.16 492.32 2559.96 575.12 2559.96 676.92V1883.08C2560 1984.88 2477.2 2067.68 2375.4 2067.68ZM615.4 1698.48V1218.48L861.56 1526.16L1107.72 1218.48V1698.48H1353.88V861.52H1107.72L861.56 1169.2L615.4 861.52H369.24V1698.44H615.4V1698.48ZM2264.6 1280H2018.44V861.52H1772.28V1280H1526.12L1895.36 1710.76L2264.6 1280Z" fill="black"/>
</svg>
