<svg viewBox="0 0 512 512" fill="none" xmlns="http://www.w3.org/2000/svg">
<path d="M373.825 291.429C362.069 291.429 352.506 281.862 352.506 270.111C352.506 258.36 362.069 248.801 373.825 248.801C385.582 248.801 395.145 258.358 395.145 270.111C395.145 281.864 385.582 291.429 373.825 291.429ZM138.175 291.429C126.42 291.429 116.857 281.862 116.857 270.111C116.857 258.36 126.418 248.801 138.175 248.801C149.931 248.801 159.494 258.358 159.494 270.111C159.494 281.864 149.933 291.429 138.175 291.429ZM381.471 163.054L424.081 89.287C425.254 87.2512 425.571 84.8334 424.962 82.5642C424.354 80.295 422.87 78.3597 420.836 77.1829C418.799 76.011 416.381 75.6943 414.111 76.3024C411.841 76.9104 409.905 78.3935 408.727 80.4264L365.585 155.126C332.591 140.077 295.538 131.692 256 131.692C216.462 131.692 179.409 140.077 146.417 155.126L103.273 80.4264C102.095 78.3935 100.159 76.9104 97.8893 76.3024C95.6193 75.6943 93.2008 76.011 91.1641 77.1829C89.1288 78.3586 87.6437 80.2939 87.0353 82.5636C86.4269 84.8333 86.7448 87.2515 87.9193 89.287L130.529 163.054C57.3621 202.833 7.32075 276.875 0 364.352H512C504.673 276.877 454.632 202.833 381.471 163.052" fill="#3DDB85"/>
</svg>