<svg width="512" height="512" viewBox="0 0 512 512" fill="none" xmlns="http://www.w3.org/2000/svg">
<g clip-path="url(#clip0_880_7)">
<rect x="128" y="352" width="384" height="160" rx="32" fill="url(#paint0_linear_880_7)"/>
<rect x="128" y="352" width="288" height="160" rx="32" fill="url(#paint1_linear_880_7)"/>
<rect x="128" y="352" width="192" height="160" rx="32" fill="url(#paint2_linear_880_7)"/>
<rect x="128" y="352" width="96" height="160" rx="32" fill="#F81B1B"/>
<rect width="96" height="512" rx="32" fill="url(#paint3_linear_880_7)"/>
<rect x="160" width="96" height="320" rx="32" fill="#F81B1B"/>
<path d="M295.155 46.3109C284.517 25.0341 299.989 0 323.777 0H348.223C360.344 0 371.424 6.84808 376.845 17.6892L504.845 273.689C515.483 294.966 500.011 320 476.223 320H451.777C439.656 320 428.576 313.152 423.155 302.311L295.155 46.3109Z" fill="url(#paint4_linear_880_7)"/>
<path d="M423.155 17.6892C428.576 6.8481 439.656 0 451.777 0H476.223C500.011 0 515.483 25.034 504.845 46.3108L376.845 302.311C371.424 313.152 360.344 320 348.223 320H323.777C299.989 320 284.517 294.966 295.155 273.689L423.155 17.6892Z" fill="#F81B1B"/>
<rect width="256" height="96" rx="32" fill="#F81B1B"/>
<rect y="224" width="256" height="96" rx="32" fill="#F81B1B"/>
<rect width="96" height="320" rx="32" fill="#F81B1B"/>
</g>
<defs>
<linearGradient id="paint0_linear_880_7" x1="512" y1="432" x2="320" y2="432" gradientUnits="userSpaceOnUse">
<stop offset="0.288462" stop-color="#590CDD"/>
<stop offset="0.754808" stop-color="#4605B5"/>
</linearGradient>
<linearGradient id="paint1_linear_880_7" x1="416" y1="432" x2="225" y2="432" gradientUnits="userSpaceOnUse">
<stop offset="0.259615" stop-color="#16DCFF"/>
<stop offset="0.764423" stop-color="#147B8D"/>
</linearGradient>
<linearGradient id="paint2_linear_880_7" x1="320" y1="432" x2="128" y2="432" gradientUnits="userSpaceOnUse">
<stop offset="0.225962" stop-color="#F7FF16"/>
<stop offset="0.75" stop-color="#94990D"/>
</linearGradient>
<linearGradient id="paint3_linear_880_7" x1="48" y1="512" x2="48" y2="163.5" gradientUnits="userSpaceOnUse">
<stop offset="0.410161" stop-color="#DB0C0C"/>
<stop offset="1" stop-color="#750606"/>
</linearGradient>
<linearGradient id="paint4_linear_880_7" x1="189" y1="52" x2="607.5" y2="276" gradientUnits="userSpaceOnUse">
<stop offset="0.345953" stop-color="#DB0C0C"/>
<stop offset="0.5" stop-color="#750606"/>
<stop offset="0.642951" stop-color="#DB0C0C"/>
</linearGradient>
<clipPath id="clip0_880_7">
<rect width="512" height="512" fill="white"/>
</clipPath>
</defs>
</svg>