<svg width="512" height="512" viewBox="0 0 512 512" fill="none" xmlns="http://www.w3.org/2000/svg">
<g clip-path="url(#clip0_749_39)">
<rect x="32" y="416" width="384" height="64" rx="32" fill="url(#paint0_linear_749_39)"/>
<rect x="96" y="32" width="384" height="64" rx="32" fill="url(#paint1_linear_749_39)"/>
<path d="M64 448C352 448 160 64 448 64" stroke="#00E1FF" stroke-width="128" stroke-linecap="round"/>
<path fill-rule="evenodd" clip-rule="evenodd" d="M256.2 426.4C215.27 480.974 152.86 512 64 512C28.6538 512 0 483.346 0 448C0 412.654 28.6538 384 64 384C119.14 384 140.73 367.026 153.8 349.6C171.569 325.908 181.109 291.687 193.911 240.478C194.327 238.812 194.748 237.123 195.175 235.412C206.214 191.11 220.917 132.111 255.8 85.6C296.73 31.0264 359.14 0 448 0C483.346 0 512 28.6538 512 64C512 99.3462 483.346 128 448 128C392.86 128 371.27 144.974 358.2 162.4C340.431 186.092 330.891 220.313 318.089 271.522C317.673 273.188 317.252 274.877 316.825 276.588C305.786 320.89 291.083 379.889 256.2 426.4Z" fill="url(#paint2_linear_749_39)"/>
<rect x="64" width="128" height="128" rx="64" fill="#00FFFF"/>
<rect x="320" y="384" width="128" height="128" rx="64" fill="#00FFFF"/>
<rect x="96" y="32" width="64" height="64" rx="32" fill="#002929"/>
<rect x="352" y="416" width="64" height="64" rx="32" fill="#002929"/>
</g>
<defs>
<linearGradient id="paint0_linear_749_39" x1="160" y1="448" x2="322" y2="448" gradientUnits="userSpaceOnUse">
<stop stop-color="#003399"/>
<stop offset="1" stop-color="#0055FF"/>
</linearGradient>
<linearGradient id="paint1_linear_749_39" x1="192" y1="64" x2="352" y2="64" gradientUnits="userSpaceOnUse">
<stop stop-color="#0055FF"/>
<stop offset="1" stop-color="#003399"/>
</linearGradient>
<linearGradient id="paint2_linear_749_39" x1="512" y1="0" x2="0" y2="512" gradientUnits="userSpaceOnUse">
<stop stop-color="#00FFFF"/>
<stop offset="1" stop-color="#0055FF"/>
</linearGradient>
<clipPath id="clip0_749_39">
<rect width="512" height="512" fill="white"/>
</clipPath>
</defs>
</svg>
