<svg width="512" height="512" viewBox="0 0 512 512" fill="none" xmlns="http://www.w3.org/2000/svg">
<rect y="64" width="512" height="384" rx="64" fill="url(#paint0_radial_803_3)"/>
<rect x="32" y="96" width="448" height="320" rx="32" fill="#001F2F"/>
<path d="M300.781 210.369C329.228 225.075 343.452 232.427 348.067 242.295C352.085 250.886 352.085 260.817 348.067 269.409C343.452 279.276 329.228 286.629 300.781 301.334L236.59 334.516C211.901 347.279 199.556 353.661 189.5 352.272C180.722 351.059 172.839 346.26 167.731 339.019C161.879 330.724 161.879 316.827 161.879 289.034L161.879 222.669C161.879 194.876 161.879 180.979 167.731 172.684C172.839 165.443 180.722 160.644 189.5 159.432C199.556 158.043 211.901 164.424 236.59 177.187L300.781 210.369Z" fill="#00EEFF"/>
<defs>
<radialGradient id="paint0_radial_803_3" cx="0" cy="0" r="1" gradientUnits="userSpaceOnUse" gradientTransform="translate(-5.72049e-06 531) rotate(-42.3682) scale(692.988 923.985)">
<stop stop-color="#8F1FFF"/>
<stop offset="1" stop-color="#00F4FF"/>
</radialGradient>
</defs>
</svg>