<svg width="512" height="512" viewBox="0 0 512 512" fill="none" xmlns="http://www.w3.org/2000/svg">
<g clip-path="url(#clip0_594_3)">
<path d="M0 307.2C0 289.278 0 280.317 3.48779 273.472C6.55574 267.451 11.4511 262.556 17.4723 259.488C24.3175 256 33.2783 256 51.2 256H64V480H51.2C33.2783 480 24.3175 480 17.4723 476.512C11.4511 473.444 6.55574 468.549 3.48779 462.528C0 455.683 0 446.722 0 428.8V307.2Z" fill="#FF3456"/>
<path d="M0 307.2C0 289.278 0 280.317 3.48779 273.472C6.55574 267.451 11.4511 262.556 17.4723 259.488C24.3175 256 33.2783 256 51.2 256H172.8C190.722 256 199.683 256 206.528 259.488C212.549 262.556 217.444 267.451 220.512 273.472C224 280.317 224 289.278 224 307.2V320H0V307.2Z" fill="url(#paint0_linear_594_3)"/>
<path d="M0 416H224V428.8C224 446.722 224 455.683 220.512 462.528C217.444 468.549 212.549 473.444 206.528 476.512C199.683 480 190.722 480 172.8 480H51.2C33.2783 480 24.3175 480 17.4723 476.512C11.4511 473.444 6.55574 468.549 3.48779 462.528C0 455.683 0 446.722 0 428.8V416Z" fill="url(#paint1_linear_594_3)"/>
<path d="M416 0H428.8C446.722 0 455.683 0 462.528 3.48779C468.549 6.55574 473.444 11.4511 476.512 17.4723C480 24.3175 480 33.2783 480 51.2V172.8C480 190.722 480 199.683 476.512 206.528C473.444 212.549 468.549 217.444 462.528 220.512C455.683 224 446.722 224 428.8 224H416V0Z" fill="url(#paint2_linear_594_3)"/>
<path d="M256 51.2C256 33.2783 256 24.3175 259.488 17.4723C262.556 11.4511 267.451 6.55574 273.472 3.48779C280.317 0 289.278 0 307.2 0H320V224H307.2C289.278 224 280.317 224 273.472 220.512C267.451 217.444 262.556 212.549 259.488 206.528C256 199.683 256 190.722 256 172.8V51.2Z" fill="url(#paint3_linear_594_3)"/>
<path d="M256 51.2C256 33.2783 256 24.3175 259.488 17.4723C262.556 11.4511 267.451 6.55574 273.472 3.48779C280.317 0 289.278 0 307.2 0H428.8C446.722 0 455.683 0 462.528 3.48779C468.549 6.55574 473.444 11.4511 476.512 17.4723C480 24.3175 480 33.2783 480 51.2V64H256V51.2Z" fill="#FF5634"/>
<path d="M160 0H172.8C190.722 0 199.683 0 206.528 3.48779C212.549 6.55574 217.444 11.4511 220.512 17.4723C224 24.3175 224 33.2783 224 51.2V172.8C224 190.722 224 199.683 220.512 206.528C217.444 212.549 212.549 217.444 206.528 220.512C199.683 224 190.722 224 172.8 224H160V0Z" fill="url(#paint4_linear_594_3)"/>
<path d="M0 51.2C0 33.2783 0 24.3175 3.48779 17.4723C6.55574 11.4511 11.4511 6.55574 17.4723 3.48779C24.3175 0 33.2783 0 51.2 0H64V224H51.2C33.2783 224 24.3175 224 17.4723 220.512C11.4511 217.444 6.55574 212.549 3.48779 206.528C0 199.683 0 190.722 0 172.8V51.2Z" fill="#FF3434"/>
<path d="M0 51.2C0 33.2783 0 24.3175 3.48779 17.4723C6.55574 11.4511 11.4511 6.55574 17.4723 3.48779C24.3175 0 33.2783 0 51.2 0H172.8C190.722 0 199.683 0 206.528 3.48779C212.549 6.55574 217.444 11.4511 220.512 17.4723C224 24.3175 224 33.2783 224 51.2V64H0V51.2Z" fill="#FF3434"/>
<path d="M0 160H224V172.8C224 190.722 224 199.683 220.512 206.528C217.444 212.549 212.549 217.444 206.528 220.512C199.683 224 190.722 224 172.8 224H51.2C33.2783 224 24.3175 224 17.4723 220.512C11.4511 217.444 6.55574 212.549 3.48779 206.528C0 199.683 0 190.722 0 172.8V160Z" fill="url(#paint5_linear_594_3)"/>
<rect x="128" y="128" width="384" height="384" rx="32" fill="url(#paint6_linear_594_3)"/>
<rect x="192" y="320" width="64" height="64" rx="16" fill="white"/>
<rect x="256" y="384" width="64" height="64" rx="16" fill="white"/>
<rect x="256" y="256" width="64" height="64" rx="16" fill="white"/>
<rect x="320" y="320" width="64" height="64" rx="16" fill="white"/>
<rect x="384" y="384" width="64" height="64" rx="16" fill="white"/>
<rect x="320" y="192" width="64" height="64" rx="16" fill="white"/>
<rect x="384" y="256" width="64" height="64" rx="16" fill="white"/>
<rect x="192" y="192" width="64" height="64" rx="16" fill="white"/>
</g>
<defs>
<linearGradient id="paint0_linear_594_3" x1="70" y1="288" x2="193.5" y2="288" gradientUnits="userSpaceOnUse">
<stop stop-color="#FF3456"/>
<stop offset="1" stop-color="#991F1F"/>
</linearGradient>
<linearGradient id="paint1_linear_594_3" x1="68.5" y1="448" x2="189" y2="448" gradientUnits="userSpaceOnUse">
<stop stop-color="#FF3456"/>
<stop offset="1" stop-color="#991F1F"/>
</linearGradient>
<linearGradient id="paint2_linear_594_3" x1="448" y1="63" x2="448" y2="189.5" gradientUnits="userSpaceOnUse">
<stop stop-color="#FF4F34"/>
<stop offset="1" stop-color="#991F1F"/>
</linearGradient>
<linearGradient id="paint3_linear_594_3" x1="288" y1="66" x2="288" y2="192.5" gradientUnits="userSpaceOnUse">
<stop stop-color="#FF5634"/>
<stop offset="1" stop-color="#991F1F"/>
</linearGradient>
<linearGradient id="paint4_linear_594_3" x1="192" y1="66" x2="192" y2="224" gradientUnits="userSpaceOnUse">
<stop stop-color="#FF3434"/>
<stop offset="1" stop-color="#991F1F"/>
</linearGradient>
<linearGradient id="paint5_linear_594_3" x1="67.5" y1="192" x2="224" y2="192" gradientUnits="userSpaceOnUse">
<stop stop-color="#FF3434"/>
<stop offset="1" stop-color="#991F1F"/>
</linearGradient>
<linearGradient id="paint6_linear_594_3" x1="512" y1="128" x2="25" y2="617.5" gradientUnits="userSpaceOnUse">
<stop stop-color="#FF3434"/>
<stop offset="1" stop-color="#FF3485"/>
</linearGradient>
<clipPath id="clip0_594_3">
<rect width="512" height="512" fill="white"/>
</clipPath>
</defs>
</svg>
