<svg width="512" height="512" viewBox="0 0 512 512" fill="none" xmlns="http://www.w3.org/2000/svg">
<path d="M64 179.2C64 161.278 64 152.317 67.4878 145.472C70.5557 139.451 75.4511 134.556 81.4723 131.488C88.3175 128 97.2783 128 115.2 128H396.8C414.722 128 423.683 128 430.528 131.488C436.549 134.556 441.444 139.451 444.512 145.472C448 152.317 448 161.278 448 179.2V320C448 379.641 448 409.461 438.257 432.983C425.265 464.347 400.347 489.265 368.983 502.257C345.461 512 315.641 512 256 512C196.359 512 166.539 512 143.017 502.257C111.653 489.265 86.7346 464.347 73.7434 432.983C64 409.461 64 379.641 64 320V179.2Z" fill="url(#paint0_linear_685_43)"/>
<path d="M128 51.2C128 33.2783 128 24.3175 131.488 17.4723C134.556 11.4511 139.451 6.55574 145.472 3.48779C152.317 0 161.278 0 179.2 0H332.8C350.722 0 359.683 0 366.528 3.48779C372.549 6.55574 377.444 11.4511 380.512 17.4723C384 24.3175 384 33.2783 384 51.2V128H128V51.2Z" fill="url(#paint1_linear_685_43)"/>
<rect x="288" y="32" width="32" height="64" rx="16" fill="black"/>
<rect x="192" y="32" width="32" height="64" rx="16" fill="black"/>
<g filter="url(#filter0_d_685_43)">
<path fill-rule="evenodd" clip-rule="evenodd" d="M256 176C264.837 176 272 183.163 272 192V334.71L320 296.31V224C320 215.163 327.163 208 336 208C344.837 208 352 215.163 352 224V296.31C352 306.031 347.581 315.225 339.99 321.298L272 375.69V415.873C272.001 415.964 272.001 416.056 272 416.148V448C272 456.837 264.837 464 256 464C247.163 464 240 456.837 240 448V423.69L172.01 369.298C164.419 363.225 160 354.031 160 344.31V272C160 263.163 167.163 256 176 256C184.837 256 192 263.163 192 272V344.31L240 382.71V368.15C239.999 368.057 239.999 367.963 240 367.87V192C240 183.163 247.163 176 256 176Z" fill="white"/>
</g>
<defs>
<filter id="filter0_d_685_43" x="128" y="148" width="256" height="352" filterUnits="userSpaceOnUse" color-interpolation-filters="sRGB">
<feFlood flood-opacity="0" result="BackgroundImageFix"/>
<feColorMatrix in="SourceAlpha" type="matrix" values="0 0 0 0 0 0 0 0 0 0 0 0 0 0 0 0 0 0 127 0" result="hardAlpha"/>
<feOffset dy="4"/>
<feGaussianBlur stdDeviation="16"/>
<feComposite in2="hardAlpha" operator="out"/>
<feColorMatrix type="matrix" values="0 0 0 0 0 0 0 0 0 0 0 0 0 0 0 0 0 0 0.3 0"/>
<feBlend mode="normal" in2="BackgroundImageFix" result="effect1_dropShadow_685_43"/>
<feBlend mode="normal" in="SourceGraphic" in2="effect1_dropShadow_685_43" result="shape"/>
</filter>
<linearGradient id="paint0_linear_685_43" x1="448" y1="128" x2="103.5" y2="478" gradientUnits="userSpaceOnUse">
<stop stop-color="#4CD4FA"/>
<stop offset="1" stop-color="#2530F3"/>
</linearGradient>
<linearGradient id="paint1_linear_685_43" x1="256" y1="0" x2="256" y2="204" gradientUnits="userSpaceOnUse">
<stop stop-color="#EBEBEB"/>
<stop offset="1" stop-color="#999999"/>
</linearGradient>
</defs>
</svg>
