<svg width="32" height="32" viewBox="0 0 32 32" fill="none" xmlns="http://www.w3.org/2000/svg">
<g clip-path="url(#clip0_666_131)">
<path d="M30 16C31.1046 16 32.0129 16.8989 31.8752 17.9948C31.6973 19.4105 31.3304 20.7991 30.7821 22.1229C30.2337 23.4467 29.5113 24.688 28.636 25.8149C27.9584 26.6872 26.6805 26.6805 25.8995 25.8995L19.4142 19.4142C18.1543 18.1543 19.0466 16 20.8284 16H30Z" fill="url(#paint0_linear_666_131)"/>
<path d="M2 16C0.895431 16 -0.0128754 16.8989 0.124839 17.9948C0.302736 19.4105 0.669597 20.7991 1.21793 22.1229C1.76626 23.4467 2.48874 24.688 3.36402 25.8149C4.0416 26.6872 5.31946 26.6805 6.10051 25.8995L12.5858 19.4142C13.8457 18.1543 12.9534 16 11.1716 16H2Z" fill="url(#paint1_linear_666_131)"/>
<path d="M2 16C0.895431 16 -0.0128754 15.1011 0.124839 14.0052C0.302736 12.5895 0.669597 11.2009 1.21793 9.87706C1.76626 8.55328 2.48874 7.31198 3.36402 6.18511C4.0416 5.31278 5.31946 5.31946 6.10051 6.1005L12.5858 12.5858C13.8457 13.8457 12.9534 16 11.1716 16H2Z" fill="url(#paint2_linear_666_131)"/>
<path d="M16 30C16 31.1046 16.8989 32.0129 17.9948 31.8752C19.4105 31.6973 20.7991 31.3304 22.1229 30.7821C23.4467 30.2337 24.688 29.5113 25.8149 28.636C26.6872 27.9584 26.6805 26.6805 25.8995 25.8995L19.4142 19.4142C18.1543 18.1543 16 19.0466 16 20.8284V30Z" fill="url(#paint3_linear_666_131)"/>
<path d="M16 30C16 31.1046 15.1011 32.0129 14.0052 31.8752C12.5895 31.6973 11.2009 31.3304 9.87706 30.7821C8.55328 30.2337 7.31198 29.5113 6.18511 28.636C5.31278 27.9584 5.31946 26.6805 6.1005 25.8995L12.5858 19.4142C13.8457 18.1543 16 19.0466 16 20.8284V30Z" fill="url(#paint4_linear_666_131)"/>
<path d="M16 2C16 0.895431 15.1011 -0.0128754 14.0052 0.124839C12.5895 0.302736 11.2009 0.669597 9.87706 1.21793C8.55328 1.76626 7.31198 2.48874 6.18511 3.36402C5.31278 4.0416 5.31946 5.31946 6.1005 6.10051L12.5858 12.5858C13.8457 13.8457 16 12.9534 16 11.1716V2Z" fill="url(#paint5_linear_666_131)"/>
<rect x="18" width="14" height="14" rx="7" fill="url(#paint6_radial_666_131)"/>
</g>
<defs>
<linearGradient id="paint0_linear_666_131" x1="27.5312" y1="12.2187" x2="19.7187" y2="25.1562" gradientUnits="userSpaceOnUse">
<stop stop-color="#EAFF00"/>
<stop offset="0.5" stop-color="#FFBF00"/>
<stop offset="0.995" stop-color="#FF6A00"/>
</linearGradient>
<linearGradient id="paint1_linear_666_131" x1="12.5625" y1="25.0937" x2="6.0625" y2="11.6875" gradientUnits="userSpaceOnUse">
<stop stop-color="#00AAFF"/>
<stop offset="0.5" stop-color="#00FFFF"/>
<stop offset="1" stop-color="#00FFAA"/>
</linearGradient>
<linearGradient id="paint2_linear_666_131" x1="12.4375" y1="6.1875" x2="6.5625" y2="20.4688" gradientUnits="userSpaceOnUse">
<stop stop-color="#0095FF"/>
<stop offset="0.5" stop-color="#0040FF"/>
<stop offset="1" stop-color="#1500FF"/>
</linearGradient>
<linearGradient id="paint3_linear_666_131" x1="12.5" y1="24.7188" x2="25.3437" y2="19.5313" gradientUnits="userSpaceOnUse">
<stop stop-color="#D5FF00"/>
<stop offset="0.5" stop-color="#80FF00"/>
<stop offset="0.995" stop-color="#00FF00"/>
</linearGradient>
<linearGradient id="paint4_linear_666_131" x1="20.25" y1="25.1875" x2="6.78125" y2="19.8437" gradientUnits="userSpaceOnUse">
<stop stop-color="#00FF95"/>
<stop offset="0.5" stop-color="#00FF40"/>
<stop offset="1" stop-color="#15FF00"/>
</linearGradient>
<linearGradient id="paint5_linear_666_131" x1="6.625" y1="11.9688" x2="20.6562" y2="5.40625" gradientUnits="userSpaceOnUse">
<stop stop-color="#D500FF"/>
<stop offset="0.5" stop-color="#8000FF"/>
<stop offset="1" stop-color="#2B00FF"/>
</linearGradient>
<radialGradient id="paint6_radial_666_131" cx="0" cy="0" r="1" gradientUnits="userSpaceOnUse" gradientTransform="translate(29.6875 1.125) rotate(133.18) scale(32.0127)">
<stop offset="0.215" stop-color="#FF0000"/>
<stop offset="1" stop-color="#FFD428"/>
</radialGradient>
<clipPath id="clip0_666_131">
<rect width="32" height="32" fill="white"/>
</clipPath>
</defs>
</svg>
