<svg width="192" height="192" viewBox="0 0 192 192" fill="none" xmlns="http://www.w3.org/2000/svg">
<g clip-path="url(#clip0_666_95)">
<path d="M180 96C186.627 96 192.077 101.393 191.251 107.969C190.184 116.463 187.982 124.795 184.692 132.738C181.402 140.68 177.068 148.128 171.816 154.889C167.75 160.123 160.083 160.083 155.397 155.397L116.485 116.485C108.926 108.926 114.28 96 124.971 96H180Z" fill="url(#paint0_linear_666_95)"/>
<path d="M12 96C5.37258 96 -0.0772522 101.393 0.749031 107.969C1.81642 116.463 4.01758 124.795 7.30757 132.738C10.5976 140.68 14.9324 148.128 20.1841 154.889C24.2496 160.123 31.9167 160.083 36.603 155.397L75.5147 116.485C83.0743 108.926 77.7203 96 67.0294 96H12Z" fill="url(#paint1_linear_666_95)"/>
<path d="M12 96C5.37258 96 -0.0772522 90.6068 0.749031 84.0311C1.81642 75.5367 4.01758 67.2051 7.30757 59.2624C10.5976 51.3197 14.9324 43.8719 20.1841 37.1107C24.2496 31.8767 31.9167 31.9167 36.603 36.603L75.5147 75.5147C83.0743 83.0743 77.7203 96 67.0294 96H12Z" fill="url(#paint2_linear_666_95)"/>
<path d="M96 180C96 186.627 101.393 192.077 107.969 191.251C116.463 190.184 124.795 187.982 132.738 184.692C140.68 181.402 148.128 177.068 154.889 171.816C160.123 167.75 160.083 160.083 155.397 155.397L116.485 116.485C108.926 108.926 96 114.28 96 124.971L96 180Z" fill="url(#paint3_linear_666_95)"/>
<path d="M96 180C96 186.627 90.6068 192.077 84.0311 191.251C75.5367 190.184 67.2051 187.982 59.2624 184.692C51.3197 181.402 43.8719 177.068 37.1107 171.816C31.8767 167.75 31.9167 160.083 36.603 155.397L75.5147 116.485C83.0743 108.926 96 114.28 96 124.971L96 180Z" fill="url(#paint4_linear_666_95)"/>
<path d="M96 12C96 5.37258 90.6068 -0.0772522 84.0311 0.749031C75.5367 1.81642 67.2051 4.01758 59.2624 7.30757C51.3197 10.5976 43.8719 14.9324 37.1107 20.1841C31.8767 24.2496 31.9167 31.9167 36.603 36.603L75.5147 75.5147C83.0743 83.0743 96 77.7203 96 67.0294L96 12Z" fill="url(#paint5_linear_666_95)"/>
<rect x="108" width="84" height="84" rx="42" fill="url(#paint6_radial_666_95)"/>
</g>
<defs>
<linearGradient id="paint0_linear_666_95" x1="165.187" y1="73.3125" x2="118.312" y2="150.937" gradientUnits="userSpaceOnUse">
<stop stop-color="#EAFF00"/>
<stop offset="0.5" stop-color="#FFBF00"/>
<stop offset="0.995" stop-color="#FF6A00"/>
</linearGradient>
<linearGradient id="paint1_linear_666_95" x1="75.375" y1="150.562" x2="36.375" y2="70.125" gradientUnits="userSpaceOnUse">
<stop stop-color="#00AAFF"/>
<stop offset="0.5" stop-color="#00FFFF"/>
<stop offset="1" stop-color="#00FFAA"/>
</linearGradient>
<linearGradient id="paint2_linear_666_95" x1="74.625" y1="37.125" x2="39.375" y2="122.813" gradientUnits="userSpaceOnUse">
<stop stop-color="#0095FF"/>
<stop offset="0.5" stop-color="#0040FF"/>
<stop offset="1" stop-color="#1500FF"/>
</linearGradient>
<linearGradient id="paint3_linear_666_95" x1="75" y1="148.313" x2="152.062" y2="117.188" gradientUnits="userSpaceOnUse">
<stop stop-color="#D5FF00"/>
<stop offset="0.5" stop-color="#80FF00"/>
<stop offset="0.995" stop-color="#00FF00"/>
</linearGradient>
<linearGradient id="paint4_linear_666_95" x1="121.5" y1="151.125" x2="40.6875" y2="119.062" gradientUnits="userSpaceOnUse">
<stop stop-color="#00FF95"/>
<stop offset="0.5" stop-color="#00FF40"/>
<stop offset="1" stop-color="#15FF00"/>
</linearGradient>
<linearGradient id="paint5_linear_666_95" x1="39.75" y1="71.8125" x2="123.937" y2="32.4375" gradientUnits="userSpaceOnUse">
<stop stop-color="#D500FF"/>
<stop offset="0.5" stop-color="#8000FF"/>
<stop offset="1" stop-color="#2B00FF"/>
</linearGradient>
<radialGradient id="paint6_radial_666_95" cx="0" cy="0" r="1" gradientUnits="userSpaceOnUse" gradientTransform="translate(178.125 6.75) rotate(133.18) scale(192.076)">
<stop offset="0.215" stop-color="#FF0000"/>
<stop offset="1" stop-color="#FFD428"/>
</radialGradient>
<clipPath id="clip0_666_95">
<rect width="192" height="192" fill="white"/>
</clipPath>
</defs>
</svg>
