<svg viewBox="0 0 512 512" fill="none" xmlns="http://www.w3.org/2000/svg">
<g clip-path="url(#clip0_53_329)">
<rect x="72.3757" y="47.9923" width="355.442" height="279.767" rx="9.17269" fill="#00420F"/>
<rect x="72.949" y="48.5656" width="354.295" height="278.62" rx="8.59939" stroke="black" stroke-opacity="0.08" stroke-width="1.14659"/>
<rect x="403.739" y="100.735" width="80.261" height="291.233" rx="9.17269" fill="url(#paint0_linear_53_329)"/>
<rect x="404.312" y="101.309" width="79.1145" height="290.086" rx="8.59939" stroke="black" stroke-opacity="0.08" stroke-width="1.14659"/>
<rect x="97.6005" y="391.968" width="80.261" height="386.4" rx="9.17269" transform="rotate(-90 97.6005 391.968)" fill="url(#paint1_linear_53_329)"/>
<rect x="98.1738" y="391.395" width="79.1144" height="385.253" rx="8.59939" transform="rotate(-90 98.1738 391.395)" stroke="black" stroke-opacity="0.08" stroke-width="1.14659"/>
<path d="M30.705 326.949C24.9265 321.17 29.0191 311.29 37.1911 311.29L125.093 311.29C127.526 311.29 129.859 312.256 131.579 313.977L269.993 452.39C273.575 455.972 273.575 461.78 269.993 465.362L226.042 509.313C222.46 512.896 216.652 512.896 213.07 509.313L30.705 326.949Z" fill="#33FF61"/>
<path d="M37.1911 311.863L125.093 311.863C127.374 311.863 129.561 312.769 131.174 314.382L269.588 452.796C272.946 456.154 272.946 461.599 269.588 464.957L225.637 508.908C222.278 512.266 216.833 512.266 213.475 508.908L31.1104 326.543C25.6931 321.126 29.5298 311.863 37.1911 311.863Z" stroke="black" stroke-opacity="0.08" stroke-width="1.14659"/>
<path d="M126.265 93.856H179.259C184.345 93.856 188.468 97.9788 188.468 103.065V273.834C188.468 278.92 184.345 283.042 179.259 283.042H135.474C130.388 283.042 126.265 278.92 126.265 273.834V93.856Z" fill="#33FF61"/>
<path d="M129.13 135.993C127.301 134.254 126.265 131.841 126.265 129.318L126.265 93.856L184.592 93.856C187.056 93.8561 189.417 94.8434 191.147 96.5973L290.942 197.748C294.479 201.334 294.479 207.096 290.942 210.682L250.67 251.511L129.13 135.993Z" fill="#33FF61"/>
<path d="M372.422 128.076C374.121 126.353 375.074 124.03 375.074 121.61L375.074 93.8558L316.747 93.8558C314.284 93.8558 311.923 94.8431 310.192 96.5971L210.398 197.748C206.861 201.334 206.86 207.096 210.397 210.682L250.67 251.511L372.422 128.076Z" fill="#33FF61"/>
<path d="M312.872 103.065C312.872 97.9788 316.995 93.856 322.081 93.856L375.074 93.8558L375.074 273.834C375.074 278.92 370.952 283.042 365.866 283.042H322.081C316.995 283.042 312.872 278.92 312.872 273.834V103.065Z" fill="#33FF61"/>
</g>
<defs>
<linearGradient id="paint0_linear_53_329" x1="443.869" y1="100.735" x2="443.869" y2="391.968" gradientUnits="userSpaceOnUse">
<stop stop-color="#00D631"/>
<stop offset="1" stop-color="#009923"/>
</linearGradient>
<linearGradient id="paint1_linear_53_329" x1="300.164" y1="711.835" x2="90.0217" y2="412.007" gradientUnits="userSpaceOnUse">
<stop stop-color="#00FF3A"/>
<stop offset="1" stop-color="#00CC2E"/>
</linearGradient>
<clipPath id="clip0_53_329">
<rect width="512" height="512" fill="white"/>
</clipPath>
</defs>
</svg>
